<svg id="visual" viewBox="0 0 900 600" width="900" height="600" xmlns="http://www.w3.org/2000/svg" xmlns:xlink="http://www.w3.org/1999/xlink" version="1.1"><rect x="0" y="0" width="900" height="600" fill="#020202"></rect><defs><linearGradient id="grad1_0" x1="33.3%" y1="0%" x2="100%" y2="100%"><stop offset="20%" stop-color="#da1f26" stop-opacity="1"></stop><stop offset="80%" stop-color="#da1f26" stop-opacity="1"></stop></linearGradient></defs><defs><linearGradient id="grad1_1" x1="33.3%" y1="0%" x2="100%" y2="100%"><stop offset="20%" stop-color="#da1f26" stop-opacity="1"></stop><stop offset="80%" stop-color="#8e201d" stop-opacity="1"></stop></linearGradient></defs><defs><linearGradient id="grad1_2" x1="33.3%" y1="0%" x2="100%" y2="100%"><stop offset="20%" stop-color="#481813" stop-opacity="1"></stop><stop offset="80%" stop-color="#8e201d" stop-opacity="1"></stop></linearGradient></defs><defs><linearGradient id="grad1_3" x1="33.3%" y1="0%" x2="100%" y2="100%"><stop offset="20%" stop-color="#481813" stop-opacity="1"></stop><stop offset="80%" stop-color="#020202" stop-opacity="1"></stop></linearGradient></defs><defs><linearGradient id="grad2_0" x1="0%" y1="0%" x2="66.7%" y2="100%"><stop offset="20%" stop-color="#da1f26" stop-opacity="1"></stop><stop offset="80%" stop-color="#da1f26" stop-opacity="1"></stop></linearGradient></defs><defs><linearGradient id="grad2_1" x1="0%" y1="0%" x2="66.7%" y2="100%"><stop offset="20%" stop-color="#8e201d" stop-opacity="1"></stop><stop offset="80%" stop-color="#da1f26" stop-opacity="1"></stop></linearGradient></defs><defs><linearGradient id="grad2_2" x1="0%" y1="0%" x2="66.7%" y2="100%"><stop offset="20%" stop-color="#8e201d" stop-opacity="1"></stop><stop offset="80%" stop-color="#481813" stop-opacity="1"></stop></linearGradient></defs><defs><linearGradient id="grad2_3" x1="0%" y1="0%" x2="66.7%" y2="100%"><stop offset="20%" stop-color="#020202" stop-opacity="1"></stop><stop offset="80%" stop-color="#481813" stop-opacity="1"></stop></linearGradient></defs><g transform="translate(900, 0)"><path d="M0 486.7C-41.7 453.6 -83.5 420.5 -132.9 409C-182.3 397.4 -239.3 407.5 -282.7 389.1C-326.1 370.8 -355.9 323.9 -385.9 280.4C-415.9 236.8 -446.1 196.6 -462.9 150.4C-479.8 104.2 -483.3 52.1 -486.7 0L0 0Z" fill="#29120c"></path><path d="M0 365.1C-31.3 340.2 -62.6 315.4 -99.7 306.7C-136.7 298.1 -179.5 305.6 -212 291.9C-244.6 278.1 -266.9 242.9 -289.4 210.3C-311.9 177.6 -334.6 147.4 -347.2 112.8C-359.8 78.2 -362.4 39.1 -365.1 0L0 0Z" fill="#6a1d18"></path><path d="M0 243.4C-20.9 226.8 -41.7 210.2 -66.4 204.5C-91.1 198.7 -119.7 203.8 -141.4 194.6C-163.1 185.4 -178 162 -193 140.2C-207.9 118.4 -223 98.3 -231.5 75.2C-239.9 52.1 -241.6 26.1 -243.4 0L0 0Z" fill="#b32121"></path><path d="M0 121.7C-10.4 113.4 -20.9 105.1 -33.2 102.2C-45.6 99.4 -59.8 101.9 -70.7 97.3C-81.5 92.7 -89 81 -96.5 70.1C-104 59.2 -111.5 49.1 -115.7 37.6C-119.9 26.1 -120.8 13 -121.7 0L0 0Z" fill="#da1f26"></path></g><g transform="translate(0, 600)"><path d="M0 -486.7C40.4 -455.4 80.8 -424.1 135.3 -416.6C189.9 -409 258.4 -425.3 286.1 -393.8C313.8 -362.3 300.5 -283.1 327.7 -238.1C354.8 -193 422.3 -182 455.6 -148C488.8 -114 487.8 -57 486.7 0L0 0Z" fill="#29120c"></path><path d="M0 -365.1C30.3 -341.6 60.6 -318.1 101.5 -312.4C142.4 -306.8 193.8 -318.9 214.6 -295.3C235.3 -271.7 225.4 -212.3 245.7 -178.5C266.1 -144.7 316.7 -136.5 341.7 -111C366.6 -85.5 365.8 -42.8 365.1 0L0 0Z" fill="#6a1d18"></path><path d="M0 -243.4C20.2 -227.7 40.4 -212.1 67.7 -208.3C94.9 -204.5 129.2 -212.6 143.1 -196.9C156.9 -181.2 150.3 -141.6 163.8 -119C177.4 -96.5 211.2 -91 227.8 -74C244.4 -57 243.9 -28.5 243.4 0L0 0Z" fill="#b32121"></path><path d="M0 -121.7C10.1 -113.9 20.2 -106 33.8 -104.1C47.5 -102.3 64.6 -106.3 71.5 -98.4C78.4 -90.6 75.1 -70.8 81.9 -59.5C88.7 -48.2 105.6 -45.5 113.9 -37C122.2 -28.5 121.9 -14.3 121.7 0L0 0Z" fill="#da1f26"></path></g></svg>