<?xml version="1.0" encoding="utf-8"?><svg xmlns="http://www.w3.org/2000/svg" xmlns:xlink="http://www.w3.org/1999/xlink" width="2090" height="984" preserveAspectRatio="xMidYMid" viewBox="0 0 2090 984" style="z-index:1;margin-right:-2px;display:block;background-repeat-y:initial;background-repeat-x:initial;background-color:rgb(241, 242, 243);animation-play-state:paused" ><g transform="translate(1045,492) scale(1,1) translate(-1045,-492)" style="transform:matrix(1, 0, 0, 1, 0, 0);animation-play-state:paused" ><g transform="translate(1622.9983915528176,43.6584902528478) scale(100)" opacity="0.33999999999999997" style="transform:matrix(100, 0, 0, 100, 1623, 43.6585);opacity:0.34;animation-play-state:paused" ><path d="M7.09555 0 C7.09555 1.68245 7.366250103543664 2.3101805594028706 6.525025103543665 3.767225 S5.00481944059713 5.303701553822673 3.547775000000001 6.144926553822674 S1.6824500000000004 7.5344500000000005 4.613520037917888e-16 7.5344500000000005 S-2.0907305594028696 6.986151553822674 -3.5477749999999983 6.144926553822675 S-5.683800103543662 5.224269440597132 -6.525025103543663 3.767225000000003 S-7.09555 1.682450000000001 -7.09555 8.689542595690002e-16 S-7.366250103543665 -2.310180559402869 -6.5250251035436655 -3.767224999999998 S-5.004819440597132 -5.303701553822672 -3.5477750000000032 -6.144926553822673 S-1.6824500000000013 -7.5344500000000005 -1.3840560113753663e-15 -7.5344500000000005 S2.090730559402866 -6.986151553822675 3.5477749999999952 -6.1449265538226765 S5.683800103543661 -5.224269440597132 6.525025103543662 -3.767225000000004 S7.09555 -1.6824500000000018 7.09555 -1.7379085191380004e-15" fill="#727272" stroke-width="0" transform="matrix(1,0,0,1,0,0)" style="transform:matrix(1, 0, 0, 1, 0, 0);animation-play-state:paused" ></path></g>
<g transform="translate(1738.5980698633812,-46.00981169658269) scale(100)" opacity="0.33999999999999997" style="transform:matrix(100, 0, 0, 100, 1738.6, -46.0098);opacity:0.34;animation-play-state:paused" ><path d="M8.51466 0 C8.51466 2.0189399999999997 8.839500124252396 2.7722166712834437 7.830030124252396 4.520669999999998 S6.0057833287165545 6.364441864587207 4.2573300000000005 7.373911864587208 S2.01894 9.041339999999998 5.536224045501464e-16 9.041339999999998 S-2.5088766712834434 8.383381864587207 -4.257329999999998 7.373911864587209 S-6.820560124252393 6.269123328716556 -7.830030124252393 4.520670000000002 S-8.51466 2.0189400000000006 -8.51466 1.0427451114828e-15 S-8.839500124252396 -2.7722166712834415 -7.830030124252397 -4.520669999999996 S-6.005783328716557 -6.364441864587205 -4.257330000000003 -7.373911864587206 S-2.0189400000000015 -9.041339999999998 -1.660867213650439e-15 -9.041339999999998 S2.5088766712834394 -8.38338186458721 4.257329999999994 -7.373911864587211 S6.820560124252392 -6.2691233287165575 7.830030124252392 -4.5206700000000035 S8.51466 -2.018940000000002 8.51466 -2.0854902229656e-15" fill="#3a3a3a" stroke-width="0" transform="matrix(1,0,0,1,0,0)" style="transform:matrix(1, 0, 0, 1, 0, 0);animation-play-state:paused" ></path></g>
<g transform="translate(2016.0372978087335,-261.2137363752156) scale(100)" opacity="0.33999999999999997" style="transform:matrix(100, 0, 0, 100, 2016.04, -261.214);opacity:0.34;animation-play-state:paused" ><path d="M11.920523999999999 0 C11.920523999999999 2.826516 12.375300173953354 3.8811033397968226 10.962042173953355 6.328937999999999 S8.408096660203176 8.910218610422088 5.960262 10.32347661042209 S2.8265160000000007 12.657876 7.750713663702051e-16 12.657876 S-3.51242733979682 11.73673461042209 -5.960261999999997 10.323476610422091 S-9.548784173953353 8.77677266020318 -10.962042173953353 6.328938000000004 S-11.920523999999999 2.826516000000001 -11.920523999999999 1.4598431560759202e-15 S-12.375300173953356 -3.8811033397968195 -10.962042173953357 -6.328937999999996 S-8.408096660203181 -8.910218610422088 -5.960262000000005 -10.32347661042209 S-2.826516000000002 -12.657876 -2.325214099110615e-15 -12.657876 S3.512427339796814 -11.736734610422094 5.960261999999991 -10.323476610422095 S9.54878417395335 -8.77677266020318 10.962042173953352 -6.328938000000005 S11.920523999999999 -2.826516000000003 11.920523999999999 -2.9196863121518404e-15" fill="#020202" stroke-width="0" transform="matrix(1,0,0,1,0,0)" style="transform:matrix(1, 0, 0, 1, 0, 0);animation-play-state:paused" ></path></g></g></svg>