<svg xmlns="http://www.w3.org/2000/svg" id="Layer_2" data-name="Layer 2" viewBox="0 0 1919.33 1208.09">
  <defs>
    <radialGradient id="radial-gradient" cx="907.67" cy="812.23" r="735.11" fx="907.67" fy="812.23" gradientTransform="matrix(1 0 0 -1 0 1208)" gradientUnits="userSpaceOnUse">
      <stop offset="0" stop-color="#fff"/>
      <stop offset="1"/>
    </radialGradient>
    <style>
      .b01, .b02, .b03, .b04, .b05, .b06, .b07, .b08, .b09, .b10, .b11, .b12, .b13, .b14, .b15, .b16 {
        stroke-width:.09px;
        fill:#f2f2f2;
        stroke:#f2f2f2;
      }
      .b01:hover, .b02:hover, .b03:hover, .b04:hover, .b05:hover, .b06:hover, .b07:hover, .b08:hover, .b09:hover, .b10:hover, .b11:hover, .b12:hover, .b13:hover, .b14:hover, .b15:hover, .b16:hover {
        <!-- fill: #fad89b; -->
        fill: #fceea7;
      }
    </style>
  </defs>
  <g id="Layer_1-2" data-name="Layer 1">
    <path d="M0 0h1919.33v799.53H0z" style="fill:url(#radial-gradient)"/>
    <path id="_b01_" d="M30.56 400.43c-5.42 0-10.83.01-16.25-.02.07-11.4-.02-22.8.05-34.2 5.4.05 10.81-.01 16.21.06-.08 11.39-.04 22.78-.01 34.16Zm-16.19 46.28c5.39-.02 10.77 0 16.15-.03.02-11.39 0-22.78.02-34.17-5.4-.02-10.8-.01-16.2-.01 0 11.4-.04 22.8.03 34.21Zm16.16 46.26c0-11.37 0-22.74-.01-34.11-5.38.01-10.76.02-16.14-.01-.1 11.37-.02 22.75-.05 34.13 5.4-.01 10.8-.02 16.2-.01Zm-16.17 50.5c-.06 11.39-.02 22.78-.02 34.17 5.4.03 10.8 0 16.2.02-.02-11.39-.01-22.79-.01-34.18-5.39-.02-10.78-.01-16.17-.01Z" class="cls-2 b01" data-name="&amp;lt;b01&amp;gt;"/>
    <path id="_b02_" d="M70.53 600.47c-.06 11.36 0 22.72-.03 34.09-5.43.01-10.85-.01-16.27.02-.03-11.37 0-22.74 0-34.1 5.44-.04 10.87 0 16.3-.01Zm6.11 34.09c5.39.02 10.79-.01 16.19.01.05-11.37.03-22.74.01-34.11H76.63c.03 11.37.04 22.73.01 34.1Zm38.56-.01c-.05-11.36.01-22.73-.04-34.1-5.38.03-10.76.02-16.14.03-.01 11.36-.15 22.73.08 34.09 5.36-.01 10.73.01 16.1-.02Zm22.41.03c0-11.37.03-22.74 0-34.1-5.42-.02-10.84.01-16.27-.02-.01 11.37-.01 22.74 0 34.11 5.43.01 10.85-.02 16.28.01ZM70.5 645.1c-5.43.01-10.86.02-16.28 0 0 11.41 0 22.81-.01 34.22 5.43-.02 10.86-.03 16.29 0 .01-11.41 0-22.81 0-34.22Zm44.7 34.23c-.04-11.41 0-22.82-.03-34.23-5.39.02-10.78.02-16.17 0-.04 11.4.01 22.81-.03 34.22 5.41-.04 10.82-.02 16.23.01Zm22.39-.02c.05-11.4 0-22.8.03-34.2-5.43 0-10.86 0-16.3-.01.02 11.41-.04 22.83.05 34.25 5.4-.1 10.81-.03 16.22-.04Zm-83.38 12.17c.04 11.37-.01 22.74.01 34.1 5.43 0 10.86.01 16.3-.01-.03-11.36 0-22.72-.02-34.08-5.43-.02-10.86 0-16.29-.01Zm22.44 34.08c5.4.04 10.8.01 16.2.03-.01-11.37.02-22.74 0-34.1-5.4-.02-10.81-.02-16.21.01.02 11.35.02 22.71.01 34.06Zm38.55 0c-.05-11.36.01-22.72-.03-34.08-5.38.01-10.75.01-16.12-.02-.1 11.37-.13 22.75.02 34.12 5.38 0 10.75.02 16.13-.02Zm6.13-34.07c0 11.36-.03 22.73.02 34.09 5.42-.01 10.84 0 16.26 0 .02-11.37.01-22.73 0-34.09-5.43 0-10.85-.02-16.28 0Zm-28.5 78.85c.04-11.38.04-22.76.01-34.14-5.41-.01-10.81-.04-16.21 0 .03 11.38.05 22.76-.01 34.14 5.4-.03 10.8-.03 16.21 0Zm22.35.02c0-11.39 0-22.77.01-34.16-5.41-.04-10.81-.02-16.22-.02.01 11.39.04 22.77-.01 34.16 5.41-.04 10.81-.04 16.22.02Zm-44.68 10.5c-5.42-.04-10.84-.03-16.27-.01-.04 11.35 0 22.69-.02 34.04 5.43.05 10.86-.01 16.3.04-.01-11.36 0-22.72-.01-34.07Zm-16.25 43.08c-.04 11.4-.08 22.8.02 34.2 5.42.02 10.84.06 16.25-.21-.04-11.33 0-22.66-.02-33.99-5.41.04-10.83.03-16.25 0Zm60.96 34.01c-.06-11.34-.01-22.67-.02-34.01-5.4.04-10.8.03-16.2.01-.02 11.34.02 22.68-.03 34.03 5.41.27 10.84.25 16.25-.03Zm-44.7 9.17c-5.43.02-10.86-.03-16.29.04-.01 11.33 0 22.67 0 34.01 5.43.04 10.86.02 16.28.01.01-11.36 0-22.71.01-34.06Zm6.15.02c-.01 11.35-.01 22.69-.01 34.04 5.4.01 10.8.02 16.21-.01 0-11.35.01-22.69-.03-34.03-5.39-.02-10.78-.02-16.17 0Zm22.32 34.03c5.4.04 10.8.02 16.2.01.02-11.35-.04-22.69.04-34.03-5.42-.04-10.83-.02-16.25-.03.03 11.35.01 22.7 0 34.05Zm-44.77 9.08c0 11.36.01 22.72.01 34.08 5.43-.04 10.86-.03 16.29-.01.01-11.37-.03-22.73.01-34.09-5.44.02-10.87-.03-16.31.02Zm38.64 34.09c.01-11.36.01-22.72 0-34.08-5.4-.04-10.79-.03-16.19-.02-.03 11.36.02 22.72-.02 34.08 5.4 0 10.8-.03 16.21.02Zm6.13-34.09c-.01 11.35.02 22.71-.01 34.06 5.41.01 10.81-.03 16.21.03.03-11.37-.04-22.73.03-34.09-5.41-.05-10.82-.01-16.23 0Zm38.64.02c-5.43-.07-10.85-.03-16.28-.03-.03 11.36-.04 22.73.01 34.1 5.41-.06 10.83-.03 16.24 0 .06-11.36.01-22.72.03-34.07Zm-60.95 44.59c-.04 11.37-.02 22.74-.01 34.11 5.38.01 10.77-.16 16.14.16.08-11.41.08-22.82.02-34.22-5.38-.02-10.77.02-16.15-.05Z" class="cls-2 b02" data-name="&amp;lt;b02&amp;gt;"/>
    <path id="_b03_" d="M224.64 479.16c5.41.01 10.81-.04 16.21-.01.02 11.36.05 22.72 0 34.08-5.39.01-10.78-.03-16.17 0-.02-11.36.03-22.72-.03-34.07Zm-66.04 46.78c5.39-.03 10.78.01 16.17-.03.09 11.37.03 22.75.03 34.13-5.4.05-10.8-.03-16.2-.02.03-11.36.04-22.72 0-34.08Zm22.46-.03c5.39.03 10.78.03 16.18.01 0 11.36-.03 22.72 0 34.09-5.4.03-10.81.04-16.21 0 .03-11.37-.02-22.74.02-34.11Zm22.32.03c5.4-.01 10.81-.03 16.21.02-.02 11.34-.04 22.69.02 34.04-5.4.06-10.8.02-16.2.04-.05-11.37-.02-22.74-.03-34.1Zm22.34-.02c5.4.01 10.79.02 16.19.01 0 11.37 0 22.74.02 34.11-5.41-.02-10.82.01-16.23-.04.05-11.36 0-22.72.02-34.08Zm-44.69 44.65h16.23c-.07 11.41.03 22.82-.05 34.23-5.38-.04-10.76-.06-16.14.01-.05-11.41 0-22.82-.04-34.24ZM158.6 736.71c5.39-.03 10.77.02 16.16-.04.1 11.36.04 22.73.04 34.1-5.4.05-10.79.04-16.19.04 0-11.37.03-22.74 0-34.1Zm22.47-.02c5.39.01 10.79-.01 16.18.02 0 11.34-.07 22.68.05 34.03-5.41.11-10.83.08-16.23.04-.03-11.36-.03-22.73 0-34.09Zm22.32 34.09c0-11.37-.05-22.74.04-34.11 5.38.03 10.77.03 16.15.02-.02 11.36 0 22.73 0 34.1-5.39.04-10.79.02-16.18-.01Zm22.31-34.09c5.41.01 10.81.01 16.22 0-.02 11.37.03 22.74-.03 34.11-5.4.02-10.8.03-16.2-.05.06-11.35.03-22.71 0-34.06Zm-44.64 46.26h16.23c-.12 11.4-.02 22.81-.05 34.22-5.39-.04-10.78-.02-16.17-.01-.03-11.41-.03-22.81 0-34.22Zm22.33 0c5.4 0 10.79-.02 16.19 0 0 11.4-.02 22.8 0 34.2-5.4 0-10.8.04-16.2-.04v-34.16Zm-44.77 44.73c5.37.03 10.74.03 16.12-.03.17 11.38.05 22.76.05 34.15-5.4 0-10.8.02-16.2-.01.07-11.37 0-22.74.03-34.11Zm44.77 34.12c0-11.38-.02-22.76 0-34.13 5.38.05 10.77.03 16.16.03.04 11.36 0 22.73 0 34.1-5.39 0-10.79.01-16.18 0Zm22.33-34.12c5.4.04 10.8.02 16.21.01-.03 11.37 0 22.74-.03 34.11-5.4-.01-10.8.04-16.21-.03.06-11.37.02-22.73.03-34.09Zm-67.13 44.7c5.4-.04 10.8-.06 16.21-.04.03 11.4.03 22.81 0 34.21-5.39-.02-10.78 0-16.17 0-.02-11.39.03-22.78-.03-34.17Zm44.79-.01c5.4-.03 10.8-.02 16.21-.02-.03 11.4 0 22.79-.02 34.19-5.4.01-10.79.02-16.19-.01 0-11.39.02-22.77 0-34.16Zm-22.37 81.4c5.41.01 10.82.01 16.23 0v34.14c-5.39.06-10.78.04-16.17.01-.07-11.38.04-22.77-.06-34.15Zm22.37 34.15c.04-11.39-.06-22.78.05-34.17 5.38.05 10.76.04 16.15 0 0 11.39-.03 22.78 0 34.18-5.41.01-10.81.04-16.21-.01Zm22.33-34.14c5.4-.02 10.8.03 16.21-.04v34.18c-5.41.02-10.81.06-16.21.01.04-11.39.02-22.77.01-34.15Zm-67.07 102.15c5.39.04 10.77-.08 16.16.1-.02 11.4.08 22.81-.05 34.21-5.37-.02-10.74-.07-16.11 0-.03-11.44-.04-22.88 0-34.31Z" class="cls-2 b03" data-name="&amp;lt;b03&amp;gt;"/>
    <path id="_b04_" d="M315.73 344.41c5.39-.05 10.77-.02 16.16-.02-.04 11.4.08 22.8-.04 34.2-5.38-.02-10.77 0-16.15-.02.08-11.39.03-22.77.03-34.16Zm22.48-.02c5.39-.01 10.78-.06 16.17.02-.02 11.39-.02 22.78 0 34.17-5.38 0-10.76 0-16.14.03-.06-11.41 0-22.81-.03-34.22Zm-46.45 47.4c5.4.03 10.8.03 16.2 0 0 11.37.02 22.75-.01 34.12-5.39-.01-10.78.01-16.17-.03-.02-11.36 0-22.73-.02-34.09Zm22.44 0c5.4.04 10.8.03 16.21 0 0 11.36-.02 22.72.01 34.08-5.41.04-10.82.06-16.22.01.01-11.37.01-22.73 0-34.09Zm22.31 34.09c.1-11.37-.03-22.73.06-34.09 5.38.01 10.76.03 16.15-.01.05 11.37 0 22.74.02 34.11-5.41.01-10.82.05-16.23 0Zm-44.19 14.31c5.41.02 10.82-.03 16.22.02.02 11.39-.01 22.79.02 34.19-5.39-.03-10.78-.05-16.17.01-.11-11.41.02-22.82-.07-34.22Zm22.35 0c5.4-.02 10.81.02 16.21-.02-.04 11.42.09 22.84-.08 34.27-5.37-.11-10.75-.06-16.12-.05 0-11.4.01-22.8-.01-34.2Zm-22.9 45.23c5.39-.02 10.79-.01 16.19-.03.03 11.41-.01 22.81.01 34.22-5.41-.03-10.82.01-16.22-.03.05-11.39.02-22.77.02-34.16Zm22.46-.05c5.38.06 10.78.02 16.17.04.02 11.4 0 22.8.01 34.2-5.4-.03-10.79-.01-16.18-.01-.05-11.41-.03-22.82 0-34.23Zm22.32.03c5.4 0 10.8.04 16.19-.02-.02 11.41.02 22.81-.02 34.22-5.39 0-10.79-.01-16.18 0 .03-11.4-.02-22.8 0-34.2Zm-22.34 183.2c5.4-.03 10.8-.02 16.21 0-.02 11.35-.01 22.7-.01 34.06-5.41.05-10.82.02-16.22 0 .03-11.35.01-22.71.02-34.06Zm-22.43 103.14c5.39.04 10.79.03 16.18-.01-.02 11.41.02 22.81-.01 34.22h-16.16c-.04-11.41 0-22.81 0-34.21Zm22.44.01c5.4.02 10.8.01 16.21 0-.03 11.39-.03 22.79-.01 34.2-5.41.02-10.81 0-16.21 0 0-11.4-.01-22.8.01-34.2Zm22.29 34.18c.08-11.39-.01-22.78.05-34.17 5.39 0 10.77.02 16.16-.02.04 11.4.01 22.8.02 34.2-5.41 0-10.82.04-16.23-.01Zm-44.75 104.74c5.4.02 10.79.02 16.19-.01.04 11.4-.02 22.8.02 34.2-5.4-.03-10.79-.02-16.19-.01-.02-11.4 0-22.79-.02-34.18Zm44.76.03c5.4-.06 10.8.02 16.2-.05.04 11.4.02 22.79.02 34.19-5.4.01-10.8-.03-16.2.03 0-11.39.02-22.78-.02-34.17Zm-44.75 210.77c5.39-.05 10.79-.02 16.19-.01 0 11.4.01 22.8-.01 34.2-5.4-.05-10.8.01-16.2-.04.05-11.39.02-22.77.02-34.15Z" class="cls-2 b04" data-name="&amp;lt;b04&amp;gt;"/>
    <path id="_b05_" d="M388.69 600.48c5.4-.03 10.79-.02 16.19 0 .01 11.36.03 22.72-.01 34.08-5.39 0-10.79 0-16.18.01-.01-11.37 0-22.73 0-34.09Zm22.46-.02c5.39.01 10.78.01 16.18.01 0 11.36-.04 22.72.02 34.09-5.41.02-10.81 0-16.21 0-.02-11.37-.02-22.73.01-34.1Zm22.32 0c5.39.03 10.78 0 16.17.03.01 11.36.05 22.73-.01 34.1-5.39-.06-10.78 0-16.16-.02-.01-11.38-.01-22.75 0-34.11Zm22.31.03c5.4-.03 10.79-.03 16.19-.03-.03 11.37.02 22.75-.02 34.13-5.39-.04-10.77-.02-16.16-.03 0-11.36.04-22.71-.01-34.07Zm22.47-.01c5.4-.04 10.8-.02 16.2.01-.06 11.35-.02 22.71-.02 34.07-5.4.02-10.8 0-16.2.01 0-11.36-.01-22.73.02-34.09Zm22.33 0c5.39-.01 10.79-.02 16.2 0-.05 11.36.01 22.72-.02 34.09-5.4-.01-10.8 0-16.2-.01.02-11.36 0-22.73.02-34.08Zm-89.44 70.17c5.4.05 10.79.06 16.18.02.01 11.36-.02 22.72.02 34.07-5.4.09-10.8.02-16.2.05 0-11.38-.02-22.76 0-34.14Zm44.66.03c5.39.02 10.78 0 16.17.02-.01 11.36-.01 22.73-.01 34.09-5.38-.01-10.77 0-16.16-.01 0-11.36.01-22.73 0-34.1Zm44.77 0c5.38.02 10.77.03 16.16-.02.1 11.37-.03 22.75.05 34.13-5.4-.02-10.81.02-16.22-.03.02-11.36.01-22.72.01-34.08Zm-89.42 44.76c5.4-.01 10.8-.03 16.2.02-.06 11.36-.03 22.72-.02 34.09-5.4-.03-10.79-.03-16.18-.01-.03-11.37-.03-22.73 0-34.1Zm22.32-.01c5.39-.01 10.79 0 16.19 0-.02 11.37.03 22.73-.03 34.1-5.39-.01-10.77.01-16.15-.01-.03-11.36-.01-22.73-.01-34.09Zm22.32.03c5.39-.07 10.78 0 16.18-.04-.01 11.37-.02 22.74 0 34.11-5.39-.01-10.78 0-16.17 0 0-11.36.01-22.71 0-34.07Zm-44.65 108.49c5.39.02 10.79 0 16.18 0v34.2c-5.39-.03-10.77-.03-16.15-.02-.09-11.39-.02-22.79-.03-34.19Zm22.31 33.99c.07-11.34-.05-22.68.06-34.01 5.37.07 10.75-.01 16.13.07.02 11.32.03 22.65 0 33.98-5.39.33-10.8.15-16.19-.04Zm22.38-33.99c5.38.02 10.76-.01 16.14.03-.04 11.38.04 22.77-.04 34.16-5.38.02-10.75 0-16.12 0 0-11.4-.05-22.8.02-34.2Zm22.44 0c5.38.03 10.77 0 16.16-.02-.02 11.41 0 22.82-.02 34.24-5.39-.09-10.78.13-16.16-.2-.02-11.34-.05-22.68.02-34.02Zm-22.46 127.73c5.39 0 10.77-.01 16.16 0-.01 11.39-.01 22.78 0 34.17-5.39-.02-10.77 0-16.15 0-.03-11.39-.02-22.79-.01-34.17Zm-67.13 44.77c5.4-.05 10.79-.03 16.2-.02.02 11.36.01 22.73.01 34.09-5.4 0-10.79 0-16.19.02-.03-11.37 0-22.73-.02-34.09Zm44.79-.02c5.39-.03 10.78 0 16.18-.01 0 11.37.04 22.73-.03 34.09-5.38.03-10.77 0-16.16.02.01-11.37 0-22.74.01-34.1Zm22.32.01c5.39-.03 10.78-.02 16.18-.02-.01 11.37-.01 22.73 0 34.11h-16.16c-.04-11.37.01-22.73-.02-34.09Zm22.46-.01c5.39 0 10.79-.03 16.19.02-.03 11.35-.04 22.7.01 34.06-5.41 0-10.82.03-16.23 0 .04-11.36-.01-22.72.03-34.08Z" class="cls-2 b05" data-name="&amp;lt;b05&amp;gt;"/>
    <path id="_b06_" d="M545.34 455.15c5.4-.02 10.79 0 16.19 0-.01 11.36 0 22.72.01 34.08-5.39 0-10.78-.01-16.16 0-.09-11.36-.03-22.72-.04-34.08Zm22.35 0h16.19c-.02 11.36-.02 22.72 0 34.08-5.4.02-10.81.02-16.21.01.01-11.36-.02-22.72.02-34.08Zm22.25.04c5.44-.08 10.87-.06 16.31-.02 0 11.35-.04 22.7.02 34.06-5.35.03-10.69-.06-16.03.05-.67-11.34-.15-22.73-.3-34.09Zm-44.56 91c5.38.03 10.77-.01 16.15.03.01 11.34 0 22.69 0 34.05-5.38.03-10.77-.05-16.15.03-.08-11.37-.07-22.74 0-34.11Zm44.53.07c5.45-.12 10.89-.08 16.34-.04-.05 11.34.02 22.69-.02 34.04-5.43 0-10.86 0-16.29.02-.03-11.35.01-22.69-.03-34.02ZM567.7 718.59c5.38.01 10.78 0 16.17.02 0 11.36-.02 22.72.01 34.09-5.39-.02-10.79-.01-16.18 0-.04-11.38-.04-22.75 0-34.12Zm-.02 70.23c5.39-.02 10.79 0 16.19-.01 0 11.38-.02 22.75.01 34.13-5.4-.01-10.79.02-16.19 0-.04-11.37-.01-22.75-.01-34.12Zm22.35.02c5.41-.05 10.81-.04 16.22 0 0 11.36-.03 22.73 0 34.09-5.44.01-10.88.06-16.32-.04.07-11.35-.14-22.71.1-34.05Zm-44.65 157.11c-.07-11.39-.07-22.77 0-34.15 5.38.04 10.77.03 16.16.01-.01 11.37-.03 22.74 0 34.11-5.39.03-10.77-.02-16.16.03Zm22.3-34.13c5.4.01 10.8-.02 16.2.03-.02 11.35-.02 22.71 0 34.08-5.4-.03-10.8.01-16.2.01-.02-11.38 0-22.75 0-34.12Zm22.48-.03c5.36.06 10.73.02 16.1.04-.03 11.35-.04 22.71 0 34.07-5.45.02-10.9.09-16.34-.04.14-11.35-.29-22.72.23-34.07Z" class="cls-2 b06" data-name="&amp;lt;b06&amp;gt;"/>
    <path id="_b07_" d="M659.32 398.2c5.4-.04 10.8-.01 16.2-.01.01 11.38 0 22.76 0 34.14-5.4.01-10.8-.04-16.19.03-.02-11.39 0-22.78-.01-34.16Zm-22.46 194.79c5.4 0 10.81.01 16.22.01 0 11.37-.01 22.74 0 34.11-5.41-.04-10.83.05-16.24-.08.07-11.35.06-22.69.01-34.04Zm22.45.08c5.4-.13 10.8-.07 16.2-.07.03 11.36 0 22.73 0 34.09-5.4.02-10.79-.02-16.19.02-.02-11.35 0-22.69-.02-34.04Zm24-.04c5.39-.06 10.78-.04 16.17-.02.02 11.36.01 22.71 0 34.07-5.39.05-10.79-.03-16.18.03.01-11.36-.01-22.72.01-34.08Zm-23.98 73.37c5.4-.05 10.8-.04 16.2.01-.02 11.39-.02 22.78 0 34.17-5.4 0-10.8-.03-16.2 0-.01-11.4-.01-22.79 0-34.19Zm-22.42 122.97c5.39.03 10.79.04 16.19 0-.04 11.38-.02 22.76-.02 34.14-5.4-.05-10.8-.01-16.2-.02.04-11.37-.02-22.75.03-34.12Zm22.4 0c5.41.05 10.81-.01 16.22.03-.02 11.36-.01 22.73 0 34.1-5.4 0-10.8-.04-16.19.01-.05-11.38.01-22.76-.03-34.14Zm23.99 0c5.4.05 10.8 0 16.2.04-.04 11.36.02 22.72-.02 34.08-5.38.01-10.76-.04-16.13.03-.1-11.38-.02-22.77-.05-34.15Zm-23.97 261.9c5.39-.05 10.79 0 16.19-.03v34.17c-5.4.01-10.8.02-16.2-.01.01-11.38 0-22.76.01-34.13Zm24-.02c5.39-.02 10.77.01 16.17 0-.01 11.38-.01 22.77 0 34.16-5.41.01-10.81.03-16.21-.03.04-11.38-.03-22.76.04-34.13Z" class="cls-2 b07" data-name="&amp;lt;b07&amp;gt;"/>
    <path id="_b08_" d="M733.45 528.1c-.24-11.4-.13-22.82-.05-34.23 5.36.05 10.73.03 16.1.01.05 11.44.05 22.88 0 34.32-5.35-.11-10.71.14-16.05-.1Zm23.95.11c-.17-11.45-.13-22.9-.02-34.35 5.36.07 10.72.03 16.09.02.03 11.44.02 22.88.01 34.31-5.36-.03-10.72-.02-16.08.02Zm23.89 0c.01-11.45-.13-22.9.07-34.35 5.36.06 10.73.04 16.1.02 0 11.44.01 22.88 0 34.32-5.39-.03-10.78-.03-16.16 0Zm-23.99 95.07c5.4-.04 10.8-.02 16.21.02-.04 11.39-.01 22.78-.02 34.17-5.4-.02-10.8-.01-16.2 0 .03-11.4.02-22.79.01-34.19Zm.01 262.47c.02-11.37-.05-22.74.03-34.11 5.38.03 10.76 0 16.15.02.01 11.36-.03 22.72.02 34.08-5.4.04-10.8.02-16.2 0Zm23.97-34.11c5.39.03 10.78.02 16.18.02.01 11.36-.02 22.72.01 34.08-5.41.04-10.8.02-16.2.01 0-11.37 0-22.74.01-34.11Zm-47.95 148.6c5.4-.07 10.8-.05 16.2-.02.02 11.35-.02 22.7-.01 34.06-5.38-.03-10.76-.06-16.14.03-.11-11.36-.03-22.72-.05-34.07Z" class="cls-2 b08" data-name="&amp;lt;b08&amp;gt;"/>
    <path id="_b09_" d="M888.13 5.14c5.38 0 10.75.01 16.13 0-.03 6.58.02 13.15-.03 19.72-5.37.01-10.74 0-16.11.01.02-6.58-.01-13.15.01-19.73Zm-53.66 74.27c5.4-.03 10.8 0 16.2-.02-.02 11.37 0 22.74-.01 34.11h-16.18c-.01-11.36 0-22.72-.01-34.09Zm-6.3 55.87c5.39-.05 10.79-.05 16.18 0-.03 11.36-.02 22.72-.01 34.09-5.39-.02-10.77 0-16.15 0 0-11.36.02-22.71-.02-34.07Zm23.92-.04c5.41.04 10.83-.06 16.25.07-.07 11.34-.05 22.69-.04 34.04h-16.19c-.02-11.37.03-22.73-.02-34.1Zm70.3-.01c5.4.04 10.81-.02 16.21.05-.07 11.35-.02 22.7-.03 34.05-5.38.04-10.76 0-16.14.03-.12-11.38-.04-22.75-.04-34.13Zm-99.03 94.84c-.01-11.41-.04-22.82.01-34.22 5.39.08 10.78.02 16.17.02 0 11.41.01 22.81 0 34.22-5.4 0-10.79.02-16.18-.02Zm23.97-34.21c5.39.06 10.78.01 16.18.01 0 11.41-.01 22.82 0 34.23-5.4-.01-10.8-.03-16.19.02-.02-11.42-.03-22.84 0-34.26Zm51.07 34.15c.04-11.39-.04-22.77.05-34.15 5.37.05 10.75.03 16.14.01.05 11.41 0 22.82.03 34.23-5.41-.03-10.82.06-16.22-.09Zm23.99.04c-.02-11.4-.06-22.79.02-34.18 5.38.04 10.76.02 16.14.01.03 11.4 0 22.8.03 34.2-5.4 0-10.79.05-16.19-.03Zm23.98.03c-.01-11.41-.08-22.83.03-34.24 5.38.09 10.76.04 16.15.03-.03 11.42-.01 22.83-.01 34.24-5.39-.04-10.79-.01-16.17-.03Zm-123.02 68.1c5.4.01 10.81-.03 16.22.01-.06 11.35-.03 22.69-.02 34.04-5.39-.01-10.77-.01-16.16.01-.1-11.36-.02-22.71-.04-34.06Zm75.06.02c5.4-.03 10.8-.02 16.21-.01-.04 11.35.04 22.7-.05 34.05-5.37-.02-10.74-.03-16.11.01-.11-11.35-.02-22.7-.05-34.05Zm47.94 0c5.4-.03 10.8-.01 16.21 0-.06 11.34 0 22.69-.04 34.03-5.36-.08-10.73.15-16.08-.11-.23-11.3-.03-22.61-.09-33.92Zm-47.93 233.03c5.4 0 10.8-.02 16.21.02-.04 11.38 0 22.76-.03 34.14-5.39.02-10.78 0-16.17 0-.04-11.39-.02-22.77-.01-34.16Zm-75.08 131.01c5.41-.08 10.82-.03 16.23-.02-.05 11.38-.04 22.75 0 34.13-5.41.03-10.81-.03-16.21.04-.04-11.39 0-22.77-.02-34.15Zm49.45-.01c5.38-.04 10.76-.06 16.15 0 .01 11.38.01 22.77 0 34.15-5.38-.06-10.76-.01-16.13-.03 0-11.37.03-22.75-.02-34.12Zm49.58 0c5.4-.06 10.81-.05 16.22.01-.07 11.38 0 22.76-.03 34.14-5.39-.04-10.77-.03-16.15 0-.09-11.38 0-22.77-.04-34.15Zm23.97.01c5.39-.09 10.79-.04 16.2-.03-.01 11.39-.01 22.78.01 34.17-5.4-.04-10.79-.03-16.17 0-.08-11.38 0-22.76-.04-34.14Zm-23.95 158.69c0-11.42-.07-22.85.03-34.27 5.38.08 10.76.03 16.15.05 0 11.39-.02 22.79.01 34.19-5.4.01-10.8-.03-16.19.03Zm-99.04 82.4c5.41-.02 10.82-.05 16.24.03-.09 11.34-.04 22.68-.03 34.02-5.4.04-10.79-.01-16.18.04-.07-11.36-.02-22.73-.03-34.09Zm23.96 0c5.4-.03 10.81-.03 16.22 0-.04 11.35-.03 22.7-.01 34.05-5.39.04-10.78-.01-16.17.05-.09-11.37-.01-22.74-.04-34.1Zm25.49-.01c5.38.01 10.76-.03 16.14.02 0 11.36.02 22.72-.01 34.09-5.39-.06-10.77-.01-16.15-.05.06-11.36.04-22.71.02-34.06Zm25.63.01c5.39-.04 10.79-.02 16.2 0-.05 11.36.01 22.72-.03 34.08-5.39-.02-10.78-.01-16.17 0-.04-11.36-.03-22.72 0-34.08Zm23.94.02c5.41-.07 10.82-.04 16.24-.01-.09 11.35-.02 22.71-.04 34.07-5.39-.02-10.78-.02-16.16 0-.08-11.35-.01-22.71-.04-34.06Zm23.99-.02c5.4-.03 10.8-.03 16.2 0-.05 11.35-.01 22.71-.02 34.06-5.39 0-10.78 0-16.16.02-.06-11.37-.04-22.73-.02-34.09Zm-99.03 201.17c5.4-.02 10.8-.03 16.2 0-.05 11.37-.02 22.73-.01 34.1-5.4 0-10.8-.01-16.19 0-.03-11.37-.03-22.74 0-34.1Zm51.09-.01c5.4 0 10.79 0 16.19.01.01 11.35-.02 22.71.01 34.07-5.4.04-10.79.01-16.18.04-.06-11.38-.04-22.75-.02-34.12Zm47.93.01c5.4-.02 10.8-.03 16.2.01-.02 11.35-.03 22.71 0 34.07-5.4.02-10.79 0-16.18.01-.04-11.37-.02-22.73-.02-34.09ZM867.24 5.13c5.4.01 10.8.02 16.21 0 0 6.58-.02 13.16 0 19.74-5.4-.01-10.79 0-16.19.01-.05-6.59-.01-13.17-.02-19.75Z" class="cls-2 b09" data-name="&amp;lt;b09&amp;gt;"/>
    <path id="_b10_" d="M1009.27 523.81c.02-11.38-.05-22.77.03-34.15 5.38.1 10.77.06 16.16.05-.08 11.37-.01 22.74-.03 34.11h-16.16Zm54.23-.01c-.02-11.37-.03-22.73.01-34.1 5.38.04 10.76.02 16.14 0 .09 11.37.01 22.74.05 34.12-5.4-.02-10.8.03-16.2-.02Zm23.97 0c-.01-11.37-.05-22.73.02-34.09 5.38.04 10.76 0 16.16 0 .03 11.37-.01 22.74.02 34.12-5.41-.04-10.8.02-16.2-.03Zm23.95 0c.03-11.36-.05-22.73.04-34.1 5.38.06 10.78 0 16.17 0-.02 11.37-.02 22.74.01 34.11-5.41-.03-10.82.01-16.22-.02Zm-75.06 34.61c5.4 0 10.81-.01 16.22 0-.04 11.37 0 22.73-.02 34.1-5.4 0-10.79-.04-16.18.03-.06-11.38-.02-22.75-.02-34.13Zm-27.11 62.31c5.39-.06 10.79-.05 16.19-.02-.02 11.36-.03 22.72 0 34.08-5.39-.02-10.77.02-16.15-.02-.06-11.35.01-22.7-.04-34.04Zm102.18 34.05c-.01-11.36-.03-22.72.01-34.08 5.39-.01 10.79-.02 16.19 0-.02 11.36-.02 22.72.01 34.09-5.41-.02-10.81.02-16.21-.01Zm-75.04 184.62c5.39.02 10.79-.01 16.19.03-.04 11.39 0 22.78-.02 34.16-5.4 0-10.8.03-16.2 0 0-11.4-.04-22.8.03-34.19Zm27.11.02c5.4-.02 10.8-.01 16.2-.01-.02 11.4-.03 22.8.01 34.2-5.41-.01-10.81 0-16.21 0-.02-11.4-.01-22.79 0-34.19Zm23.97.01c5.39-.03 10.79-.01 16.19-.03 0 11.4-.01 22.81 0 34.22-5.4-.03-10.8-.01-16.2-.01-.01-11.4-.02-22.79.01-34.18Z" class="cls-2 b10" data-name="&amp;lt;b10&amp;gt;"/>
    <path id="_b11_" d="M1249.37 638.87c.03-11.4-.05-22.79.05-34.19 5.37-.01 10.76 0 16.14.01.03 11.39-.03 22.79.04 34.18-5.42.01-10.82.01-16.23 0Zm-76.68 12.67c5.38-.02 10.76-.02 16.15 0 .01 11.37 0 22.73 0 34.1-5.39-.02-10.78 0-16.16-.02.02-11.36-.01-22.72.01-34.08Zm25.62-.02c5.39.01 10.78 0 16.18.01-.02 11.36-.04 22.72.01 34.08-5.41.03-10.81.02-16.2.03 0-11.38-.02-22.75.01-34.12Zm25.55.04c5.42-.06 10.84-.03 16.26-.01-.02 11.36.11 22.72-.07 34.07-5.38.01-10.77.01-16.14.03-.1-11.37-.01-22.73-.05-34.09Zm23.98-.02c5.37-.02 10.75 0 16.13-.01 0 11.37-.01 22.74 0 34.11-5.37-.02-10.73-.01-16.08 0-.11-11.37-.03-22.74-.05-34.11Zm-49.52 81.39c5.38-.03 10.76-.03 16.14 0 .05 11.34-.03 22.69.04 34.03-5.4.28-10.82.22-16.22-.03.05-11.33-.02-22.67.04-34Zm49.52-.01c5.36-.02 10.72 0 16.09-.02.06 11.41.05 22.82.01 34.22-5.37-.01-10.73.11-16.08-.12-.05-11.36-.01-22.72-.02-34.08Zm-49.53 49.55c5.39.04 10.78-.01 16.18.04-.03 11.35 0 22.71 0 34.07-5.4 0-10.8.04-16.19 0 .03-11.37-.02-22.74.02-34.11Zm49.53.03c5.36-.03 10.74.01 16.12-.02.02 11.37 0 22.75 0 34.13-5.37-.03-10.74 0-16.11-.02-.03-11.37 0-22.73-.01-34.09Zm-75.16 110.18c5.38-.02 10.77-.04 16.17.01-.01 11.35 0 22.71 0 34.06-5.4.02-10.79.03-16.18-.01.02-11.36.02-22.71.01-34.06Zm25.61.02c5.39-.07 10.79-.04 16.19-.02 0 11.35-.03 22.7.02 34.06-5.4.06-10.8.03-16.19.01-.03-11.35 0-22.7-.02-34.05Zm25.59-.03c5.41-.01 10.83-.02 16.26.01-.01 11.35 0 22.71 0 34.07-5.43.05-10.85 0-16.26.02-.02-11.37-.02-22.74 0-34.1Zm23.97 0c5.37-.01 10.74 0 16.12-.01-.01 11.37-.01 22.74.01 34.12-5.38-.01-10.76-.02-16.13-.01-.03-11.37-.02-22.74 0-34.1Zm-75.16 76.64c5.38 0 10.76.02 16.14-.03.03 11.39.03 22.77.01 34.16-5.4-.05-10.78-.05-16.16-.01.02-11.38-.01-22.75.01-34.12Zm25.58.02c5.4-.05 10.81-.03 16.22 0-.03 11.36 0 22.72-.02 34.08-5.38.01-10.77-.04-16.14.03-.09-11.37.01-22.74-.06-34.11Zm-25.6 49.4c5.39.03 10.78 0 16.18 0-.01 11.39 0 22.78 0 34.17-5.39-.02-10.78-.03-16.16 0-.02-11.4 0-22.79-.02-34.18Zm75.18 0c5.38.01 10.76 0 16.15.01.09 11.38-.13 22.76-.03 34.14-5.38 0-10.76 0-16.14.01.02-11.39-.01-22.77.02-34.16Zm-23.96 126.13h16.06c.41 11.34.07 22.69.19 34.04-5.42.06-10.84.04-16.25.04-.04-11.36-.04-22.72 0-34.08Zm23.98 0h16.08c.04 11.36 0 22.72.02 34.09-5.38-.02-10.75 0-16.12-.01-.02-11.36-.04-22.72.02-34.08Zm-24-175.56c5.42 0 10.83-.02 16.26.03.02 11.35-.01 22.7.01 34.05-5.43.03-10.85.01-16.27.02v-34.1Zm0 49.43c5.42.01 10.84-.02 16.27.02-.01 11.36 0 22.73-.01 34.1-5.42.08-10.85.02-16.26.04v-34.16Zm0-236.23c5.38-.04 10.76-.02 16.14-.02.21 11.37.25 22.75-.02 34.13-5.38-.04-10.76.01-16.13-.05.04-11.36 0-22.71.01-34.06Z" class="cls-2 b11" data-name="&amp;lt;b11&amp;gt;"/>
    <path id="_b12_" d="M1321.29 368.34c5.39-.03 10.79-.01 16.19 0-.03 11.4-.02 22.79 0 34.19-5.39.01-10.78-.01-16.17.02-.07-11.4-.03-22.81-.02-34.21Zm25.55.03c5.4-.03 10.81-.09 16.22.02.22 11.36 0 22.73.11 34.1-5.46.07-10.91.04-16.35.03.04-11.39.03-22.77.02-34.15Zm25.64-.02c5.39-.02 10.79-.04 16.19.01-.02 11.39 0 22.78-.01 34.17-5.4 0-10.79-.01-16.17 0-.04-11.39-.04-22.79 0-34.18Zm23.96 0c5.39-.01 10.78-.03 16.18.01.01 11.4.03 22.79 0 34.19-5.4-.02-10.78-.02-16.16-.01-.03-11.39-.02-22.79-.01-34.19Zm-49.62 46.37c5.37-.01 10.74.01 16.12-.03.46 11.35.08 22.71.21 34.06-5.43.11-10.86.04-16.29.07-.04-11.37 0-22.74-.04-34.1Zm.02 78.19c5.44-.03 10.87-.04 16.32 0 0 11.36-.06 22.73.03 34.09-5.46.13-10.92.13-16.37.02.05-11.37.02-22.74.02-34.11Zm25.61.03c5.4-.08 10.81-.07 16.22-.01-.02 11.37-.02 22.74 0 34.11-5.42.06-10.83.09-16.23-.03.06-11.36.01-22.72.01-34.07Zm23.98-.01c5.38-.07 10.78-.03 16.18-.03.05 11.37 0 22.75.03 34.13-5.42.08-10.82.1-16.23 0 .04-11.37.02-22.74.02-34.1Zm-75.16 111.78c5.4-.04 10.8-.03 16.2 0-.01 11.39 0 22.79 0 34.18-5.4 0-10.79-.01-16.17.01-.06-11.39-.02-22.79-.03-34.19Zm25.57 0c5.43-.03 10.87-.05 16.32.03-.09 11.36.11 22.73-.1 34.09-5.42.1-10.83.07-16.24.03.05-11.39.02-22.77.02-34.15Zm25.62 34.15c.01-11.39-.02-22.78.01-34.16 5.38-.01 10.78-.02 16.17 0 .05 11.38-.01 22.77.03 34.16-5.41.05-10.81.04-16.21 0Zm23.98.02c0-11.4-.03-22.8.01-34.19 5.38.01 10.78-.02 16.17.01.03 11.39 0 22.78.01 34.18-5.4.02-10.8.01-16.19 0Zm-49.61 53.69c5.37-.05 10.74-.03 16.13-.03.37 11.35.17 22.71.12 34.06-5.42.07-10.85.06-16.27.01.06-11.35.04-22.7.02-34.04Zm.01 140.34c5.45.13 10.92-.25 16.36.35-.29 11.33.33 22.69-.35 34.01-5.35-.08-10.69-.06-16.02-.04.04-11.44.01-22.88.01-34.32Zm49.59.07c5.39-.08 10.79-.06 16.19.01 0 11.42.07 22.84-.04 34.26-5.38-.06-10.76.01-16.14-.05-.02-11.41 0-22.82-.01-34.22Zm-49.6 57.53c5.37-.07 10.74-.01 16.12-.04.31 11.4.36 22.83-.04 34.23-5.37-.06-10.73 0-16.09-.05.04-11.39.04-22.77.01-34.14Zm25.64-.03c5.4.01 10.8-.02 16.2.01-.02 11.4-.01 22.8-.02 34.2-5.39-.05-10.78-.02-16.17-.01-.03-11.41-.04-22.8-.01-34.2Zm23.97 0h16.18c.01 11.4.02 22.81 0 34.21-5.4-.04-10.79-.02-16.18-.01-.01-11.4-.01-22.8 0-34.2Zm-75.15 185.26c5.39.05 10.78.02 16.18.02-.01 11.36 0 22.73-.01 34.11-5.39-.02-10.79 0-16.17-.03-.03-11.37-.03-22.74 0-34.1Zm25.54 0c5.44.03 10.88.03 16.33 0-.16 11.36.24 22.74-.21 34.1-5.38.03-10.75.03-16.12-.01.03-11.37.02-22.73 0-34.09Zm25.64 34.11c-.02-11.37-.03-22.74.01-34.11 5.38.04 10.77.03 16.17-.01.03 11.36 0 22.73.01 34.11-5.4.02-10.8.03-16.19.01Zm23.97 0c-.01-11.38-.02-22.75 0-34.12 5.38.05 10.77.03 16.16 0 .07 11.37.01 22.74.03 34.11-5.4.02-10.8.03-16.19.01Z" class="cls-2 b12" data-name="&amp;lt;b12&amp;gt;"/>
    <path id="_b13_" d="M1466.69 787.75c5.4.02 10.8.03 16.21-.02-.01 11.38 0 22.77-.01 34.16-5.4.03-10.81.03-16.2 0 .02-11.38.02-22.76 0-34.14Zm-23.99 140.59c5.39-.07 10.79-.03 16.19-.02.02 11.36.01 22.72 0 34.09-5.39-.01-10.78 0-16.16-.01-.01-11.36.04-22.71-.03-34.06Zm.02 102.11c5.38-.03 10.77-.02 16.16 0 .02 11.39.05 22.79 0 34.19-5.39-.05-10.78.02-16.15-.04 0-11.38.02-22.77-.01-34.15Zm23.98-.01c5.4-.02 10.8-.01 16.21.01-.03 11.39 0 22.79-.02 34.19-5.41-.05-10.82.03-16.22-.04.07-11.39.01-22.77.03-34.16Z" class="cls-2 b13" data-name="&amp;lt;b13&amp;gt;"/>
    <path id="_b14_" d="M1505.17 208.7c5.35.07 10.72.01 16.08.03 0 11.35-.06 22.69.04 34.04-5.4.1-10.79.01-16.18.03.2-11.37-.45-22.74.06-34.1Zm25.46.01c5.38 0 10.76.07 16.16-.02.12 11.37.03 22.74.05 34.1-5.41.01-10.82.06-16.22-.03.04-11.35.04-22.7.01-34.05Zm23.98.02c5.37-.01 10.75.04 16.14-.04.1 11.37.01 22.73.06 34.09-5.41.05-10.81.05-16.2 0-.01-11.35 0-22.7 0-34.05Zm-23.96 46.26c5.38-.01 10.77.03 16.16.01.07 11.37.04 22.74.02 34.11-5.4-.02-10.8-.01-16.18-.01 0-11.37-.01-22.74 0-34.11Zm.01 44.71c5.38.07 10.77.04 16.17.03.02 11.36.02 22.72 0 34.09-5.41.04-10.81.04-16.21-.02.06-11.37 0-22.73.04-34.1Zm-25.52 134.14c5.37.04 10.74.01 16.12.01-.03 11.37-.05 22.74.02 34.11-5.4 0-10.79-.03-16.18 0-.07-11.37-.08-22.75.04-34.11Zm25.51 0c5.38.02 10.78.03 16.18-.03.05 11.37-.01 22.74.02 34.11-5.41.03-10.82.04-16.21 0 .02-11.36 0-22.72.01-34.08Zm23.95 0c5.38 0 10.76.04 16.14-.04.11 11.37.03 22.75.05 34.12-5.41.04-10.8.03-16.19 0 .01-11.36.02-22.72 0-34.08Zm-49.45 43.09c5.35-.03 10.72-.03 16.09-.01.04 11.35-.06 22.7.04 34.05-5.35.27-10.7.05-16.03.2-.4-11.41-.24-22.83-.1-34.24Zm25.51 0c5.39-.02 10.78-.05 16.17 0 0 11.4.08 22.81-.03 34.22-5.39-.07-10.77 0-16.15-.04 0-11.4-.02-22.79.01-34.18Zm-.03 44.67c5.4.01 10.8 0 16.21 0 .03 11.39-.03 22.79.01 34.18-5.41.05-10.82.04-16.22-.01.03-11.39.01-22.78 0-34.17Zm23.97 0a1744 1744 0 0 0 16.17-.02c.06 11.41 0 22.81.02 34.22-5.4.02-10.79.01-16.18 0 0-11.4 0-22.8-.01-34.2Zm-23.97 44.8c5.4-.09 10.8-.04 16.21-.03-.03 11.39.04 22.78-.01 34.17-5.41.01-10.8.01-16.2 0 .02-11.38.02-22.76 0-34.14Zm-25.51 122.87c5.37-.02 10.75 0 16.14 0-.03 11.4-.03 22.81-.02 34.21-5.38-.03-10.75-.02-16.12 0-.18-11.4-.15-22.81 0-34.21Zm25.49.05c5.41-.12 10.82-.04 16.24-.03-.03 11.39.01 22.78-.01 34.17-5.4 0-10.8.02-16.2.02-.01-11.39.05-22.77-.03-34.16Zm23.97-.02c5.4-.07 10.81-.02 16.22-.02-.03 11.4.03 22.8-.03 34.2-5.4-.04-10.78.01-16.16 0-.03-11.4.05-22.79-.03-34.18Zm-49.6 97.41c5.42-.03 10.84 0 16.27-.03-.04 11.41.02 22.82-.02 34.23-5.43-.04-10.84 0-16.26-.03.41-11.39-.06-22.78.01-34.17Zm49.65-.04c5.36.03 10.73.05 16.11 0 .12 11.41.01 22.83.06 34.24-5.4-.03-10.79-.02-16.18 0 0-11.41-.02-22.82.01-34.24Zm-49.45 142.09c5.35.02 10.72 0 16.09.02-.06 11.38-.04 22.75-.01 34.13-5.38-.03-10.76.02-16.13 0 .03-11.39-.24-22.78.05-34.15Zm25.46.02c5.4-.02 10.79 0 16.2-.01 0 11.38.04 22.76-.03 34.14-5.39-.03-10.79.02-16.17-.02 0-11.37.01-22.74 0-34.11Zm23.98 0c5.37-.02 10.75.02 16.13-.03.09 11.38.01 22.77.05 34.15-5.41 0-10.8 0-16.2.02.02-11.38.01-22.76.02-34.14Zm-49.48 59.05c5.36.05 10.74.04 16.12.01-.04 11.45-.02 22.89-.01 34.34-5.36-.06-10.72-.03-16.07-.03-.25-11.44-.14-22.88-.04-34.32Zm25.52.02c5.38.02 10.77.03 16.16-.01.02 11.44.07 22.89-.03 34.33-5.38-.04-10.75-.06-16.12.01-.04-11.45-.03-22.89-.01-34.33Z" class="cls-2 b14" data-name="&amp;lt;b14&amp;gt;"/>
    <path id="_b16_" d="M1636.57 298.16c5.39.05 10.79 0 16.19.03 0 11.35.05 22.71-.03 34.06-5.38-.04-10.76-.02-16.13-.02-.05-11.35 0-22.71-.03-34.07Zm49.59.02c5.39.01 10.78 0 16.18 0-.02 11.36 0 22.71 0 34.06-5.4-.03-10.79-.01-16.18 0-.05-11.35-.04-22.71 0-34.06Zm25.5.02c5.39-.02 10.79-.01 16.19-.02-.03 11.35-.02 22.69-.01 34.04-5.4.02-10.79-.01-16.18.01-.04-11.34-.05-22.69 0-34.03Zm47.94 0c5.39-.02 10.79.01 16.2-.01-.06 11.34-.04 22.69-.02 34.03-5.4.04-10.8 0-16.19.02-.02-11.34-.04-22.69.01-34.04Zm23.96 0c5.39-.04 10.79 0 16.19-.03-.02 11.35-.04 22.7 0 34.05-5.4.02-10.8-.01-16.18.02-.06-11.34-.04-22.69-.01-34.04Zm23.94.01c5.4-.05 10.8-.01 16.22-.04-.04 11.34-.04 22.69.01 34.03-5.4.06-10.8 0-16.19.05-.09-11.35-.02-22.69-.04-34.04Zm-170.92 89.3c5.39-.02 10.78-.02 16.18 0 .02 11.39.02 22.78.01 34.18-5.41.01-10.81 0-16.2.01.02-11.4 0-22.79.01-34.19Zm23.98 0c5.39 0 10.78-.01 16.18 0v34.19c-5.41.01-10.81 0-16.2.01.02-11.4-.02-22.8.02-34.2Zm25.6-.02c5.4.04 10.8 0 16.21.03-.06 11.39-.03 22.77-.02 34.16-5.4.05-10.8.01-16.19.03-.05-11.41-.05-22.81 0-34.22Zm49.45.03c5.39-.02 10.78 0 16.19-.02.01 11.4-.03 22.8.02 34.2-5.41-.01-10.81.03-16.21-.03-.01-11.38 0-22.77 0-34.15Zm47.93 0c5.39-.01 10.79 0 16.2-.01 0 11.4-.03 22.8.01 34.2-5.41 0-10.81.01-16.21 0-.01-11.4-.01-22.79 0-34.19Zm-97.39 81.4c5.39-.03 10.78-.02 16.18 0 .02 11.43 0 22.86.01 34.29-5.38-.01-10.76-.03-16.13.02-.15-11.43-.07-22.87-.06-34.31Zm49.47 0c5.38-.02 10.76 0 16.16 0 .04 11.42.01 22.84.01 34.27-5.39.04-10.78-.02-16.15.03-.07-11.43-.03-22.87-.02-34.3Zm47.92 34.1c.01-11.37-.04-22.74.02-34.11 5.38 0 10.77-.02 16.17.02 0 11.42 0 22.84-.01 34.26-5.4-.03-10.8.16-16.18-.17Zm-123.01 63.38c5.4-.03 10.81-.04 16.22.01-.03 11.39-.01 22.78-.01 34.17-5.41 0-10.81-.01-16.2 0 0-11.4.02-22.79-.01-34.18Zm25.64-.01c5.39-.02 10.79-.03 16.19.02-.04 11.38-.03 22.77-.02 34.16-5.4.02-10.79-.01-16.17.02-.06-11.4-.07-22.8 0-34.2Zm25.47.01c5.4-.04 10.8-.01 16.21-.03-.03 11.41-.02 22.81-.01 34.22-5.4-.01-10.8-.01-16.19-.01-.04-11.39-.01-22.79-.01-34.18Zm23.97.01c5.39-.06 10.79-.02 16.2-.02-.03 11.39-.01 22.79-.01 34.2-5.4-.02-10.79-.02-16.17-.01-.05-11.39-.02-22.78-.02-34.17Zm47.92-.01c5.4-.05 10.81-.01 16.22-.02-.04 11.4-.01 22.81-.01 34.22-5.4-.03-10.8-.03-16.19-.02-.03-11.39 0-22.79-.02-34.18Zm-97.39 63.91c5.4-.05 10.8-.04 16.22-.01-.05 11.36-.02 22.73-.03 34.09-5.4-.02-10.8-.02-16.19 0-.02-11.36-.01-22.72 0-34.08Zm49.48-.03c5.39-.01 10.79.02 16.2 0-.06 11.35-.02 22.7-.01 34.06-5.4.06-10.8 0-16.18.04-.04-11.37-.03-22.74-.01-34.11Zm-99.04 100.58c5.39.01 10.78.05 16.17 0 .06 11.37 0 22.75.03 34.13-5.41-.02-10.81 0-16.2 0 0-11.38-.01-22.75 0-34.12Zm122.99 0c5.4.04 10.81-.02 16.22.04-.06 11.36-.01 22.72-.02 34.07-5.41 0-10.81-.01-16.2 0 .01-11.38 0-22.75 0-34.12Zm23.96 34.11c.03-11.37-.03-22.75.03-34.12 5.39.05 10.79-.01 16.2.06-.04 11.35-.02 22.7-.02 34.06-5.41 0-10.82-.01-16.21 0Zm23.97 0c.03-11.37-.04-22.75.03-34.12 5.39.05 10.79-.01 16.2.05-.06 11.35-.02 22.71-.02 34.06-5.41.02-10.82 0-16.21.01Zm-95.84 63.28c5.39-.01 10.79 0 16.2.01-.05 11.38-.03 22.76-.01 34.14-5.41.02-10.81-.01-16.2.02-.02-11.39-.04-22.78.01-34.17Zm-75.1 51.14c5.4-.04 10.8-.04 16.21-.01-.01 11.37.04 22.74-.03 34.11-5.39-.04-10.78-.02-16.16-.01-.02-11.37.02-22.73-.02-34.09Zm23.98 0c5.39-.03 10.78-.04 16.19-.01 0 11.36.03 22.73-.02 34.09-5.38-.01-10.76-.01-16.14.02-.06-11.37-.01-22.74-.03-34.1Zm75.06.01c5.4-.07 10.8 0 16.21-.04-.01 11.35-.05 22.71.02 34.07-5.41.05-10.81.03-16.21.05-.03-11.37 0-22.73-.02-34.08Zm23.96.01c5.4-.1 10.81-.01 16.22-.05-.03 11.36-.04 22.73.01 34.1-5.4.02-10.8-.01-16.19.02-.06-11.36 0-22.71-.04-34.07Zm23.99-.03c5.4-.03 10.8 0 16.2-.02-.02 11.36-.05 22.71.03 34.07-5.42.05-10.83.02-16.23.05-.02-11.37-.03-22.74 0-34.1Zm23.97-.01c5.39-.02 10.8.01 16.2-.01-.02 11.36-.08 22.71.03 34.07-5.41.05-10.82.03-16.22.05-.06-11.37-.04-22.74-.01-34.11Zm-146.99 47.93c5.39-.05 10.79-.03 16.19-.02.02 11.37.05 22.74-.01 34.12-5.39-.05-10.77-.03-16.14-.01-.06-11.37 0-22.73-.04-34.09Zm51.13-.03c5.39 0 10.79.01 16.2-.01-.05 11.36-.04 22.73-.01 34.11-5.4.01-10.8-.01-16.19.01-.05-11.37-.03-22.74 0-34.11Zm23.96.01c5.39-.02 10.79 0 16.19-.03-.02 11.37-.03 22.74 0 34.11-5.4.02-10.79 0-16.18.02-.04-11.37-.04-22.74-.01-34.1Zm23.98-.01c5.39 0 10.78.01 16.18-.02-.02 11.37-.05 22.74.02 34.11-5.41.03-10.82 0-16.22.02.01-11.37-.04-22.74.02-34.11Zm-99.08 102.15c5.41-.05 10.82 0 16.25-.03-.05 11.4-.04 22.8-.02 34.21-5.4-.01-10.81-.01-16.2 0-.03-11.39.03-22.79-.03-34.18Zm51.12-.03c5.39.02 10.78 0 16.19.01.01 11.4-.01 22.8.01 34.21-5.4-.02-10.8-.02-16.19-.02-.04-11.4 0-22.8-.01-34.2Zm23.96 0c5.39.02 10.79 0 16.19 0 .01 11.4-.01 22.81.02 34.21-5.41-.01-10.81-.01-16.2-.01-.01-11.4 0-22.8-.01-34.2Zm23.97 0c5.39.02 10.79 0 16.19.01.02 11.39-.04 22.79.03 34.19-5.41.01-10.82 0-16.21.01-.01-11.41.01-22.81-.01-34.21Zm-47.92 62.28c5.39.01 10.79-.01 16.2.01-.02 11.39-.05 22.79.01 34.18-5.41 0-10.81.01-16.21.01-.02-11.4-.03-22.8 0-34.2Zm-75.09 52.71c5.4-.04 10.8-.03 16.22 0-.02 11.39.01 22.78-.03 34.18-5.4-.01-10.79-.01-16.18-.02.01-11.39.02-22.78-.01-34.17Zm49.61-.01c5.39-.01 10.78-.04 16.18.03-.02 11.38-.03 22.76 0 34.15-5.4.04-10.79-.03-16.17.04-.09-11.41-.06-22.81-.01-34.22Zm25.48.03c5.39-.08 10.8-.03 16.21-.04-.03 11.39-.06 22.78 0 34.17-5.41.05-10.82.03-16.22.04-.02-11.39-.03-22.78 0-34.17Zm47.95-.05c5.39-.01 10.78.03 16.19.01-.07 11.4.01 22.81-.04 34.22-5.4-.03-10.79-.02-16.17-.02 0-11.41-.04-22.81.02-34.21Zm47.91.04c5.4-.05 10.8 0 16.22-.04-.06 11.41-.02 22.81-.03 34.22-5.4-.02-10.79 0-16.18 0-.05-11.4-.02-22.79-.01-34.18Zm-95.88-264.99c5.4-.08 10.81-.01 16.23-.03-.03 11.35-.06 22.71 0 34.06-5.41.05-10.82.03-16.22.05-.05-11.36 0-22.73-.02-34.08Z" class="cls-2 b15" data-name="&amp;lt;b16&amp;gt;"/>
    <path d="M1890.62 359.8c5.38 0 10.78.03 16.18-.02.05 11.39-.02 22.77.04 34.16-5.42.04-10.83.07-16.22-.01.01-11.38 0-22.76 0-34.13Zm-25.43 68.68c5.35.04 10.71-.01 16.08.05-.03 11.37-.05 22.75.01 34.13-5.4.06-10.78.05-16.16.01-.26-11.39-.37-22.81.07-34.19Zm25.42.03c5.39-.03 10.79 0 16.2-.01.02 11.39 0 22.79 0 34.19-5.4.01-10.8.02-16.2-.01v-34.17Zm-25.37 255.4c5.31.02 10.64.04 15.97-.02.08 11.44.01 22.88.04 34.32-5.33-.13-10.65.12-15.95-.12-.69-4.3-.27-8.68-.36-13.01.1-7.06-.28-14.13.3-21.17Zm25.36 142.24c5.4-.04 10.81-.05 16.22.02-.01 11.37.01 22.74-.02 34.11-5.4-.01-10.79-.01-16.18 0-.02-11.38.01-22.75-.02-34.13Zm-25.68 158.12c5.44-.1 10.89-.09 16.35-.04-.03 11.38-.06 22.75.01 34.13-5.37 0-10.74-.04-16.1.02-.53-11.36-.08-22.75-.26-34.11Zm25.7-.06c5.4 0 10.8-.05 16.21.04-.05 11.39.06 22.77-.07 34.16-5.39-.09-10.77-.06-16.14-.05v-34.15Z" class="cls-2 b16"/>
    <path d="M1917.3 1199.3h-.06c.53-20.4.02-40.82.19-61.22.03-261.01 0-522.01.03-783.01-.08-1.33-.21-2.64-.42-3.94-4.62-.75-9.31-.28-13.94-.3-18.29-.02-36.58.02-54.86-.03-.28-21.47.28-42.95-.29-64.41-46.71.08-93.43-.01-140.14.04-14.67-.19-29.36.41-44-.14-1.03-5.31-.26-10.74-.52-16.1-2.74-.34-5.88.29-8.3-1.09-.51-2.71-.52-5.46-.93-8.17-7.28.17-14.56.2-21.84.22-.08 2.91-.15 5.82-.21 8.74-2.83-.03-5.66-.07-8.46-.1-.27 5.55-.22 11.11-.2 16.67-4.25.08-8.5.07-12.73-.1-.24 26.47.32 52.95-.23 79.41.36 6.75.12 13.51.18 20.27-.04 29.64.1 59.29-.03 88.94-9.01-.06-18.02.02-27.02.1-.28-59.42.07-118.84-.02-178.26-.07-22.47-.03-44.93.04-67.4-.22-9.73-.13-19.46.03-29.19-18.64-.54-37.31.42-55.94-.36-11.75.16-23.5-.22-35.23.31-.06 7.14.05 14.28-.07 21.42 0 18.03.26 36.06-.12 54.09.41 13.11.03 26.24.18 39.36-.1 14.21.26 28.42-.2 42.62.41 24.79.1 49.59.2 74.38-.04 12.53.21 25.06-.16 37.58.4 43.15 0 86.3.17 129.45.06 59.24-.15 118.48.06 177.72-6.78.76-13.61.33-20.4.43-12.82.09-25.63-.14-38.44.12-.5-7.43-.16-14.87-.25-22.3-.04-134.17-.19-268.35.09-402.51-.19-.28-.58-.84-.78-1.12l-1.12-.72c-7.37.06-14.73.1-22.09.07.01-6.4-.01-12.79.03-19.18-11.59-.16-23.17.08-34.76-.11-13.05.06-26.11.12-39.16 0-1 .05-1.98.09-2.94.14.03 6.38.03 12.75.05 19.13-10.11.09-20.21.08-30.31.07-.25 11.52 0 23.05-.11 34.57-.05 46.75.18 93.5-.1 140.24.26 53.56.04 107.12.11 160.68-6.12-.05-12.24-.04-18.35.01v-93.8c-6.84 0-13.68.06-20.51-.1-10.69.17-21.39.16-32.07 0-13.21.19-26.42.05-39.62.1-8.42-.02-16.84 0-25.25.01-.07-10.97-.02-21.94-.03-32.9-3.51.01-7.01.02-10.51.04 0 10.95.02 21.9-.01 32.85-3.69 0-7.37.01-11.05.02-.05-36.24.02-72.48-.03-108.71-2.9 0-5.78.02-8.66.03-.01-5.56 0-11.12-.02-16.67-10.94-.04-21.89-.01-32.83-.02-.17 5.48-.09 10.96.01 16.45-36.52.4-73.07.17-109.6.18.28 59.13.15 118.27.05 177.4l-.66.04c-5.08.13-10.16.04-15.23.03.01-71.54-.02-143.08.03-214.63-.02-21.04-.11-42.08.05-63.13-.11-24.33-.14-48.67.01-73.01-.14-21.67-.15-43.34.01-65-.22-21.07-.02-42.13-.09-63.2-6.12-.03-12.24-.04-18.35.02-.02-10.17.02-20.34.01-30.51-.12-9.44.2-18.89-.16-28.32-2.24.18-4.47.19-6.69.27.11-8.71-.1-17.43.15-26.15-.25-10.43-.06-20.88-.12-31.32-6.09-.06-12.18-.04-18.26-.02-.05-5.62-.03-11.23-.04-16.85 0-5.27 0-10.55.01-15.82l-12.87-.03c-.02-4.39.07-8.79.19-13.18-.34-6.77-.1-13.56-.18-20.34-19.98.23-39.97-.09-59.96.16-.02.39-.08 1.17-.11 1.56.02 10.6.08 21.2.06 31.81-4.29.01-8.57.02-12.84.05.01 3.72.01 7.44-.02 11.16-.06 7.16.02 14.33-.03 21.49-6.09-.06-12.18-.05-18.26 0-.04 9.76.08 19.52-.08 29.28.17 8.42.05 16.85.05 25.28 0 .71.02 2.12.03 2.83-2.27.04-4.53.06-6.78.1-.1 8.61.04 17.23-.1 25.85-.05 10.62.4 21.27-.23 31.88 5.78 1.43 11.79.96 17.69 1.01 39.34.05 78.67-.07 118.01.06-41.66.12-83.31-.03-124.96.07-9.09.78-18.14-1-27.22-.22-.09 26.34.22 52.69-.04 79.03.2 21.23.1 42.46.09 63.69-.11 24.05.07 48.11-.04 72.17.08 18.99.06 37.99.06 56.99-8.82-.04-17.64-.02-26.45-.01.03 9.86.04 19.72.01 29.59-15.15-.05-30.29 0-45.43-.07l.07-.5c-.36-16.05.28-32.1-.13-48.15-3.64-.06-7.28-.07-10.92-.03-.04-3.09-.06-6.17-.05-9.25-.03-13.97.08-27.95-.03-41.92-12.29.38-24.59-.25-36.89.08-23.95.21-47.91 0-71.87.09-.05 19.94 0 39.88-.01 59.82-15.87.03-31.74.03-47.61-.09-12.3.2-24.6-.05-36.9.07-.19 2.8-.19 5.61-.3 8.41.4 44.46-.05 88.91.23 133.37-13.6.49-27.21.08-40.82.14-.05-6.26.06-12.53-.12-18.79-4.52-.16-9.03-.1-13.55-.12-.05 6.06.17 12.13-.08 18.19l-.05.7c-10.3.26-20.61.06-30.91.02.12-14.53-.03-29.07-.01-43.6-3.21-.09-6.41-.16-9.61-.28-10.64.33-21.29.08-31.93.18-.24-6.02.47-12.1-.34-18.09-.73-.17-2.19-.51-2.93-.68-.04 5.96 0 11.92-.01 17.88v.89c-5.79-.05-11.58.09-17.37-.05l-.8-.05c-.27-55-.11-110.01-.04-165.01-.22-16.17.41-32.35-.19-48.52-4.22.06-8.43-.02-12.63-.14-19.29.38-38.61.21-57.9-.05-7.99.47-15.99.2-23.98.02-8.37.47-16.76.1-25.14.15-.24 46.63.11 93.27-.08 139.9-11.24-.11-22.48.06-33.72-.14-8.31.11-16.61.16-24.92-.12-11.75.52-23.51 0-35.26.17-8.08.17-16.15-.05-24.22.03-.5 39.16-.02 78.33-.25 117.5-31.61 0-63.23.05-94.85 0-.54-23.58.04-47.17-.18-70.75-.02-53.98.03-107.97-.03-161.95-16.22-.43-32.45-.08-48.68-.13v855.05H1917.3v-8.75ZM844.34 169.36c-5.39-.02-10.77 0-16.15 0-.01-11.36.02-22.71-.02-34.07 5.39-.05 10.79-.05 16.18 0-.03 11.36-.02 22.72-.01 34.09Zm6.32-55.86h-16.18c-.01-11.36 0-22.72-.01-34.09 5.4-.03 10.8 0 16.2-.02-.02 11.37 0 22.74 0 34.11Zm17.64 55.85h-16.19c-.02-11.37.03-22.73-.02-34.1 5.41.04 10.83-.06 16.25.07-.07 11.34-.05 22.69-.04 34.04Zm15.15-144.48c-5.4-.01-10.79 0-16.19.01-.05-6.59-.01-13.17-.02-19.75 5.4 0 10.8.02 16.21 0 0 6.58-.02 13.16 0 19.74Zm20.78-.01c-5.37.01-10.74 0-16.11.01.02-6.58-.01-13.15.01-19.73 5.38 0 10.75.01 16.13 0-.03 6.58.02 13.15-.03 19.72Zm34.34 144.47c-5.38.04-10.76 0-16.14.03-.12-11.38-.04-22.75-.04-34.13 5.4.04 10.81-.02 16.21.05-.07 11.35-.02 22.7-.03 34.05ZM14.34 577.64c0-11.39-.04-22.78.02-34.17 5.39 0 10.78-.01 16.17.01 0 11.39-.01 22.79.01 34.18-5.4-.02-10.8 0-16.2-.02Zm.04-118.79c5.38.03 10.76.02 16.14.01.01 11.37.01 22.74.01 34.11-5.4-.01-10.8 0-16.2.01.03-11.38-.05-22.76.05-34.13Zm16.14-12.17c-5.38.03-10.76.01-16.15.03-.07-11.41-.03-22.81-.03-34.21 5.4 0 10.8-.01 16.2 0-.02 11.39 0 22.78-.02 34.17Zm.04-46.25c-5.42 0-10.83.01-16.25-.02.07-11.4-.02-22.8.05-34.2 5.4.05 10.81-.01 16.21.06-.08 11.39-.04 22.78-.01 34.16Zm62.28 200.03c.02 11.37.04 22.74 0 34.11-5.4-.02-10.8.01-16.19-.01.03-11.37.02-22.73-.01-34.1h16.21Zm.01 125.13c-5.4-.02-10.8.01-16.2-.03.01-11.35.01-22.71 0-34.06 5.4-.03 10.81-.03 16.21-.01.02 11.36-.01 22.73 0 34.1ZM70.51 944.32c-5.43-.02-10.86-.03-16.29.01v-34.08c5.44-.05 10.87 0 16.31-.02-.04 11.36 0 22.72-.01 34.09Zm-16.29-43.15v-34.01c5.43-.07 10.86-.02 16.29-.04-.01 11.35 0 22.7-.01 34.06-5.42.01-10.85.03-16.28-.01Zm.05-43.03c-.1-11.4-.06-22.8-.02-34.2 5.42.03 10.84.04 16.25 0 .02 11.33-.02 22.66.02 33.99-5.41.27-10.83.23-16.25.21Zm-.06-43.25c.02-11.35-.02-22.69.02-34.04 5.43-.02 10.85-.03 16.27.01.01 11.35 0 22.71.01 34.07-5.44-.05-10.87 0-16.3-.04Zm0-89.31c-.02-11.36.03-22.73 0-34.1 5.43.01 10.86-.01 16.29.01.02 11.36-.01 22.72.02 34.08-5.44.02-10.87 0-16.3 0Zm0-46.26V645.1c5.42.02 10.85.01 16.28 0 0 11.41.01 22.81 0 34.22-5.43-.03-10.86-.02-16.29 0Zm16.29-44.76c-5.43.01-10.85-.01-16.27.02-.03-11.37 0-22.74 0-34.1 5.44-.04 10.87 0 16.3-.01-.06 11.36 0 22.72-.03 34.09Zm6.13 101.64c5.4-.04 10.8-.01 16.21 0 .03 11.38.03 22.76 0 34.14-5.41-.03-10.81-.03-16.21 0 .06-11.38.04-22.76 0-34.14Zm16.23 164.97c-5.41.03-10.81.02-16.21.01 0-11.35 0-22.69.01-34.04 5.39-.02 10.78-.02 16.17 0 .04 11.34.02 22.68.03 34.03Zm-16.2 9.07c5.4-.01 10.79-.02 16.19.02.01 11.36.01 22.72 0 34.08-5.41-.05-10.81-.02-16.21-.02.04-11.36-.01-22.72.02-34.08Zm16.14 78.89c-5.37-.32-10.76-.15-16.14-.16-.01-11.37-.03-22.74.01-34.11 5.38.07 10.77.03 16.15.05.06 11.4.06 22.81-.02 34.22Zm28.53-388.67c5.43.03 10.85 0 16.27.02.04 11.36 0 22.73 0 34.1-5.43-.03-10.85 0-16.28-.01-.01-11.37-.01-22.74 0-34.11Zm-22.31.02c5.38-.01 10.76 0 16.14-.03.05 11.37-.01 22.74.04 34.1-5.37.03-10.74.01-16.1.02-.23-11.36-.09-22.73-.08-34.09ZM99 645.1c5.39.02 10.78.02 16.17 0 .03 11.41-.01 22.82.03 34.23-5.41-.03-10.82-.05-16.23-.01.04-11.41 0-22.82.03-34.22Zm.05 46.36c5.37.03 10.74.03 16.12.02.04 11.36-.02 22.72.03 34.08-5.38.04-10.75.02-16.13.02-.15-11.37-.12-22.75-.02-34.12Zm-.08 44.72c5.41 0 10.81-.02 16.22.02-.01 11.39-.01 22.77-.01 34.16-5.41-.06-10.81-.06-16.22-.02.05-11.39.02-22.77.01-34.16Zm.02 87.77c5.4.02 10.8.03 16.2-.01.01 11.34-.04 22.67.02 34.01-5.41.28-10.84.3-16.25.03.05-11.35.01-22.69.03-34.03Zm16.19 120.39c-5.4-.06-10.8-.02-16.21-.03.03-11.35 0-22.71.01-34.06 5.41-.01 10.82-.05 16.23 0-.07 11.36 0 22.72-.03 34.09Zm0-43.16c-5.4.01-10.8.03-16.2-.01 0-11.35.02-22.7-.01-34.05 5.42.01 10.83-.01 16.25.03-.08 11.34-.02 22.68-.04 34.03Zm22.41 43.16c-5.41-.03-10.83-.06-16.24 0-.05-11.37-.04-22.74-.01-34.1 5.43 0 10.85-.04 16.28.03-.02 11.35.03 22.71-.03 34.07Zm-16.26-252.85c5.43-.02 10.85 0 16.28 0 0 11.36.02 22.72 0 34.09-5.42 0-10.84-.01-16.26 0-.05-11.36-.02-22.73-.02-34.09Zm16.26-12.18c-5.41.01-10.82-.06-16.22.04-.09-11.42-.03-22.84-.05-34.25 5.44.01 10.87.01 16.3.01-.02 11.4.02 22.8-.03 34.2Zm43.47-153.4c5.39.03 10.78.03 16.18.01 0 11.36-.03 22.72 0 34.09-5.4.03-10.81.04-16.21 0 .03-11.37-.02-22.74.02-34.11Zm16.2 44.66c-.07 11.41.03 22.82-.05 34.23-5.38-.04-10.76-.06-16.14.01-.05-11.41 0-22.82-.04-34.24h16.23Zm-38.66-44.63c5.39-.03 10.78.01 16.17-.03.09 11.37.03 22.75.03 34.13-5.4.05-10.8-.03-16.2-.02.03-11.36.04-22.72 0-34.08Zm16.16 210.73c.1 11.36.04 22.73.04 34.1-5.4.05-10.79.04-16.19.04 0-11.37.03-22.74 0-34.1 5.39-.03 10.77.02 16.16-.04Zm-.01 353.58c-5.37-.02-10.74-.07-16.11 0-.03-11.44-.04-22.88 0-34.31 5.39.04 10.77-.08 16.16.1-.02 11.4.08 22.81-.05 34.21Zm.04-183.69c-5.39-.02-10.78 0-16.17 0-.02-11.39.03-22.78-.03-34.17 5.4-.04 10.8-.06 16.21-.04.03 11.4.03 22.81 0 34.21Zm0-44.75c-5.4 0-10.8.02-16.2-.01.07-11.37 0-22.74.03-34.11 5.37.03 10.74.03 16.12-.03.17 11.38.05 22.76.05 34.15Zm22.45 126.11c-5.39.06-10.78.04-16.17.01-.07-11.38.04-22.77-.06-34.15 5.41.01 10.82.01 16.23 0-.01 11.38-.01 22.76 0 34.14Zm0-170.74c-5.39-.04-10.78-.02-16.17-.01-.03-11.41-.03-22.81 0-34.22h16.23c-.12 11.4-.02 22.81-.05 34.22Zm-16.17-46.4c-.03-11.36-.03-22.73 0-34.09 5.39.01 10.79-.01 16.18.02 0 11.34-.07 22.68.05 34.03-5.41.11-10.83.08-16.23.04Zm22.31 217.15c.04-11.39-.06-22.78.05-34.17 5.38.05 10.76.04 16.15 0 0 11.39-.03 22.78 0 34.18-5.41.01-10.81.04-16.21-.01Zm.05-251.26c5.38.03 10.77.03 16.15.02-.02 11.36 0 22.73 0 34.1-5.39.04-10.79.02-16.18-.01 0-11.37-.05-22.74.04-34.11Zm16.14 169.88c-5.4.01-10.79.02-16.19-.01 0-11.39.02-22.77 0-34.16 5.4-.03 10.8-.02 16.21-.02-.03 11.4 0 22.79-.02 34.19Zm-16.17-78.87c5.38.05 10.77.03 16.16.03.04 11.36 0 22.73 0 34.1-5.39 0-10.79.01-16.18 0 0-11.38-.02-22.76.01-34.13Zm-.01-10.56v-34.16c5.4 0 10.79-.02 16.19 0 0 11.4-.02 22.8 0 34.2-5.4 0-10.8.04-16.2-.04Zm.02-257.08c-.05-11.37-.02-22.74-.03-34.1 5.4-.01 10.81-.03 16.21.02-.02 11.34-.04 22.69.02 34.04-5.4.06-10.8.02-16.2.04Zm21.23-80.88c5.41.01 10.81-.04 16.21-.01.02 11.36.05 22.72 0 34.08-5.39.01-10.78-.03-16.17 0-.02-11.36.03-22.72-.03-34.07Zm1.06 257.53c5.41.01 10.81.01 16.22 0-.02 11.37.03 22.74-.03 34.11-5.4.02-10.8.03-16.2-.05.06-11.35.03-22.71 0-34.06Zm16.21 251.24c-5.41.02-10.81.06-16.21.01.04-11.39.02-22.77 0-34.15 5.4-.02 10.8.03 16.21-.04 0 11.39.01 22.79 0 34.18Zm0-126.12c-5.4-.01-10.8.04-16.21-.03.06-11.37.02-22.73.03-34.09 5.4.04 10.8.02 16.21.01-.03 11.37 0 22.74-.03 34.11ZM225.71 560c.05-11.36 0-22.72.02-34.08 5.4.01 10.79.02 16.19.01 0 11.37 0 22.74.02 34.11-5.41-.02-10.82.01-16.23-.04Zm82.26-168.21c0 11.37.02 22.75-.01 34.12-5.39-.01-10.78.01-16.17-.03-.02-11.36 0-22.73-.02-34.09 5.4.03 10.8.03 16.2 0Zm-.01 763.87c-5.4-.05-10.8.01-16.2-.04.05-11.39.02-22.77.02-34.15 5.39-.05 10.79-.02 16.19-.01 0 11.4.01 22.8 0 34.2Zm-16.17-210.81c-.02-11.4 0-22.79-.02-34.18 5.4.02 10.79.02 16.19-.01.04 11.4-.02 22.8.02 34.2-5.4-.03-10.79-.02-16.19-.01Zm0-173.11c5.39.04 10.79.03 16.18-.01-.02 11.41.02 22.81-.01 34.22H291.8c-.04-11.41 0-22.81 0-34.21Zm-.03-252.16c.05-11.39.02-22.77.02-34.16 5.39-.02 10.79-.01 16.19-.03.03 11.41-.01 22.81.01 34.22-5.41-.03-10.82 0-16.22-.03Zm.64-45.17c-.11-11.41.02-22.82-.07-34.22 5.41.02 10.82-.03 16.22.02.02 11.39 0 22.79.02 34.19-5.39-.03-10.78-.05-16.17 0Zm44.18-82.62c5.38.01 10.76.03 16.15-.01.05 11.37 0 22.74.02 34.11-5.41.01-10.82.05-16.23-.01.1-11.37-.03-22.73.06-34.09Zm16.17 93.59c-.02 11.41.02 22.81-.02 34.22-5.39 0-10.79-.01-16.18 0 .03-11.4-.02-22.8.01-34.2 5.4-.01 10.8.04 16.19-.02Zm-38.54-93.59c5.4.04 10.8.03 16.21 0 0 11.36-.02 22.72.01 34.08-5.41.04-10.82.06-16.22 0 .01-11.37.01-22.73 0-34.09Zm.03 93.58c5.38.06 10.78.02 16.17.04.02 11.4 0 22.8 0 34.2-5.4-.03-10.79-.01-16.18-.01-.05-11.41-.03-22.82 0-34.23Zm-.02 183.23c5.4-.03 10.8-.02 16.21 0-.02 11.35-.01 22.7-.01 34.06-5.41.05-10.82.02-16.22 0 .03-11.35.01-22.71.02-34.06Zm16.21 137.35c-5.41.02-10.81 0-16.21 0 0-11.4-.01-22.8.01-34.2 5.4.02 10.8.01 16.21 0-.03 11.39-.03 22.79-.01 34.2Zm.38-331.51c-5.37-.11-10.75-.06-16.12-.05 0-11.4.01-22.8-.01-34.2 5.4-.02 10.81.02 16.21-.02-.04 11.42.09 22.84-.08 34.27Zm1.05-95.85c-5.38-.02-10.77 0-16.15-.02.08-11.39.03-22.77.03-34.16 5.39-.05 10.77-.02 16.16-.02-.04 11.4.08 22.8-.04 34.2Zm4.71 393.17c5.39 0 10.77.02 16.16-.02.04 11.4 0 22.8.02 34.2-5.41 0-10.82.04-16.23-.01.08-11.39 0-22.78.05-34.17Zm16.18 173.08c-5.4.01-10.8-.03-16.2.03 0-11.39.02-22.78-.02-34.17 5.4-.06 10.8.02 16.2-.05.04 11.4.02 22.79.02 34.19Zm1.64-566.26c-5.38 0-10.76 0-16.14.03-.06-11.41 0-22.81-.03-34.22 5.39-.01 10.78-.06 16.17.02-.02 11.39-.02 22.78 0 34.17Zm79.09 336.85c5.39-.01 10.79 0 16.19 0-.02 11.37.03 22.73-.03 34.1-5.39-.01-10.77.01-16.15-.01-.03-11.36 0-22.73 0-34.09Zm-22.33-44.78c5.4.05 10.79.06 16.18.02.01 11.36-.02 22.72.02 34.07-5.4.09-10.8.02-16.2.05 0-11.38-.02-22.76 0-34.14Zm-22.44 359.89c-.03-11.37.01-22.73-.02-34.09 5.4-.05 10.79-.03 16.2-.02.02 11.36.01 22.73.01 34.09-5.4 0-10.79 0-16.19.02Zm16.17-395.98c-5.39 0-10.79 0-16.18.01-.01-11.37 0-22.73 0-34.09 5.4-.03 10.79-.02 16.19 0 0 11.36.03 22.72-.01 34.08Zm22.45 223.6c-5.39-.03-10.77-.03-16.15-.02-.09-11.39-.02-22.79-.03-34.19 5.39.02 10.79 0 16.18 0v34.2Zm.01-108.61c-5.4-.03-10.79-.03-16.18-.01-.03-11.37-.03-22.73 0-34.1 5.4-.01 10.8-.03 16.2.02-.06 11.36-.03 22.72-.02 34.09Zm-16.19-114.99c-.02-11.37-.02-22.73.01-34.1 5.39.01 10.78.01 16.18.01 0 11.36-.04 22.72.02 34.09-5.41.02-10.81 0-16.21 0Zm22.37 189.37c5.37.07 10.75-.01 16.13.07.02 11.32.03 22.65 0 33.98-5.39.33-10.8.15-16.19-.04.07-11.34-.05-22.68.06-34.01Zm16.11 206.58c-5.38.03-10.77 0-16.16.02.01-11.37 0-22.74.01-34.1 5.39-.03 10.78 0 16.18-.01 0 11.37.04 22.73-.03 34.09Zm0-395.92c-5.39-.06-10.78 0-16.16-.02-.01-11.38-.01-22.75 0-34.11 5.39.03 10.78 0 16.17.03.01 11.36.05 22.73-.01 34.1Zm22.34 395.94h-16.16c-.04-11.37.01-22.73-.02-34.09 5.39-.03 10.78-.02 16.18-.02-.01 11.37-.01 22.73 0 34.11Zm0-44.68c-5.39-.02-10.77 0-16.15 0-.03-11.39-.02-22.79-.01-34.17 5.39 0 10.77-.01 16.16 0-.01 11.39-.01 22.78 0 34.17Zm-.04-127.71c-5.38.02-10.75 0-16.12 0-.01-11.4-.05-22.8.02-34.2 5.38.02 10.76-.01 16.14.03-.04 11.38.04 22.77-.04 34.16Zm.04-108.61c-5.39-.01-10.78 0-16.17 0-.01-11.36.01-22.71-.01-34.07 5.39-.07 10.78 0 16.18-.04-.01 11.37-.02 22.74 0 34.11Zm-.01-44.74c-5.38-.01-10.77 0-16.16-.01 0-11.36.01-22.73 0-34.1 5.39.02 10.78 0 16.17.02-.01 11.36-.01 22.73-.01 34.09Zm-.01-70.2c-5.39-.04-10.77-.02-16.16-.03 0-11.36.04-22.71 0-34.07 5.4-.03 10.79-.03 16.19-.03-.03 11.37.02 22.75-.02 34.13Zm6.27 395.92c.04-11.36-.01-22.72.03-34.08 5.39 0 10.79-.03 16.19.02-.03 11.35-.04 22.7.01 34.06-5.41 0-10.82.03-16.23 0Zm.05-206.56c5.38.03 10.77 0 16.16-.02-.02 11.41 0 22.82-.02 34.24-5.39-.09-10.78.13-16.16-.2-.02-11.34-.05-22.68.02-34.02Zm16.16-189.39c-5.4.02-10.8 0-16.2.01.01-11.36 0-22.73.02-34.09 5.4-.04 10.8-.02 16.2.01-.06 11.35-.02 22.71-.02 34.07Zm6.13 70.2c.02-11.36.01-22.72.01-34.08 5.38.02 10.77.03 16.16-.02.1 11.37-.03 22.75.05 34.13-5.4-.02-10.81.02-16.22-.03Zm16.2-70.19c-5.4-.01-10.8 0-16.2-.01.02-11.36 0-22.73.02-34.08 5.39-.01 10.79-.02 16.2 0-.05 11.36.01 22.72-.02 34.09Zm44.78 311.35c-5.39.03-10.77-.02-16.16.03-.07-11.39-.07-22.77 0-34.15 5.38.04 10.77.03 16.16.01-.01 11.37-.03 22.74 0 34.11Zm-16.16-399.73c5.38.03 10.77-.01 16.15.03.01 11.34 0 22.69 0 34.05-5.38.03-10.77-.05-16.15.03-.08-11.37-.07-22.74 0-34.11Zm0-56.96c-.09-11.36-.03-22.72-.04-34.08 5.4-.02 10.79 0 16.19 0-.01 11.36 0 22.72.01 34.08-5.39 0-10.78-.01-16.16 0Zm38.5 456.7c-5.4-.03-10.8.01-16.2.01-.02-11.38 0-22.75 0-34.12 5.4.01 10.8-.02 16.2.03-.02 11.35-.02 22.71 0 34.08Zm-16.19-122.99c-.04-11.37-.01-22.75-.01-34.12 5.39-.02 10.79 0 16.19-.01 0 11.38-.02 22.75.01 34.13-5.4-.01-10.79.02-16.19 0Zm.01-70.23c-.04-11.38-.04-22.75 0-34.12 5.38.01 10.78 0 16.17.02 0 11.36-.02 22.72.01 34.09-5.39-.02-10.79-.01-16.18 0Zm16.18-263.49c-5.4.02-10.81.02-16.21.01.01-11.36-.02-22.72.02-34.08h16.19c-.02 11.36-.02 22.72 0 34.08Zm6.05 456.64c.14-11.35-.29-22.72.23-34.07 5.36.06 10.73.02 16.1.04-.03 11.35-.04 22.71 0 34.07-5.45.02-10.9.09-16.34-.04Zm16.32-122.93c-5.44.01-10.88.06-16.32-.04.07-11.35-.14-22.71.1-34.05 5.41-.05 10.81-.04 16.22 0 0 11.36-.03 22.73 0 34.09Zm-.02-242.67c-5.43 0-10.86 0-16.29.02-.03-11.35.01-22.69-.03-34.02 5.45-.12 10.89-.08 16.34-.04-.05 11.34.02 22.69-.02 34.04Zm-15.99-90.98c-.67-11.34-.15-22.73-.3-34.09 5.44-.08 10.87-.06 16.31-.02 0 11.35-.04 22.7.02 34.06-5.35.03-10.69-.06-16.03.05Zm93.07 103.75c5.39-.06 10.78-.04 16.17-.02.02 11.36.01 22.71 0 34.07-5.39.05-10.79-.03-16.18.03.01-11.36-.01-22.72.01-34.08Zm-7.79-194.84c.01 11.38 0 22.76 0 34.14-5.4.01-10.8-.04-16.19.03-.02-11.39 0-22.78-.01-34.16 5.4-.04 10.8-.01 16.2-.01Zm0 194.81c.03 11.36 0 22.73 0 34.09-5.4.02-10.79-.02-16.19.02-.02-11.35 0-22.69-.02-34.04 5.4-.13 10.8-.07 16.2-.07Zm-38.65-.01c5.4 0 10.81.01 16.22.01 0 11.37-.01 22.74 0 34.11-5.41-.04-10.83.05-16.24-.08.07-11.35.06-22.69.01-34.04Zm16.22 230.52c-5.4-.05-10.8-.01-16.2-.02.04-11.37-.02-22.75.03-34.12 5.39.03 10.79.04 16.19 0-.04 11.38-.02 22.76-.02 34.14Zm22.44 261.9c-5.4.01-10.8.02-16.2-.01.01-11.38-.01-22.76.01-34.13 5.39-.05 10.79 0 16.19-.03v34.17Zm.01-261.91c-5.4 0-10.8-.04-16.19.01-.05-11.38.01-22.76-.03-34.14 5.41.05 10.81-.01 16.22.03-.02 11.36 0 22.73 0 34.1Zm0-122.92c-5.4 0-10.8-.03-16.2 0-.01-11.4-.01-22.79 0-34.19 5.4-.05 10.8-.04 16.2.01-.02 11.39-.02 22.78 0 34.17Zm23.97 384.83c-5.41.01-10.81.03-16.21-.03.04-11.38-.03-22.76.04-34.13 5.39-.02 10.77.01 16.17 0v34.16Zm-.02-261.92c-5.38.01-10.76-.04-16.13.03-.1-11.38-.02-22.77-.05-34.15 5.4.05 10.8 0 16.2.04-.04 11.36.02 22.72-.02 34.08Zm50.04 210.79c-5.38-.03-10.76-.06-16.14.03-.11-11.36-.03-22.72-.05-34.07 5.4-.07 10.8-.05 16.2-.02.02 11.35-.02 22.7-.01 34.06Zm-.02-506.08c-5.35-.11-10.71.14-16.05-.1-.24-11.4-.13-22.82-.05-34.23 5.36.05 10.73.03 16.1.01.05 11.44.05 22.88 0 34.32Zm7.88-34.34c5.36.07 10.72.03 16.09.02.03 11.44.02 22.88.01 34.31-5.36-.03-10.72-.02-16.08.02-.17-11.45-.13-22.9-.02-34.35Zm-.07 391.89c.02-11.37-.05-22.74.03-34.11 5.38.03 10.76 0 16.15.02.01 11.36-.03 22.72.02 34.08-5.4.04-10.8.02-16.2 0Zm16.18-228.28c-5.4-.02-10.8-.01-16.2 0 .03-11.4.02-22.79.01-34.19 5.4-.04 10.8-.02 16.21.02-.04 11.39 0 22.78-.02 34.17Zm7.87-163.61c5.36.06 10.73.04 16.1.02 0 11.44.01 22.88 0 34.32-5.39-.03-10.78-.03-16.16 0 0-11.45-.13-22.9.07-34.35Zm-.09 391.89c0-11.37-.01-22.74.01-34.11 5.39.03 10.78.02 16.18.02.01 11.36-.02 22.72.01 34.08-5.41.04-10.8.02-16.2 0Zm66.06-689.89c5.39.06 10.78.01 16.18.01 0 11.41-.01 22.82.01 34.23-5.4-.01-10.8-.03-16.19.02-.02-11.42-.03-22.84 0-34.26Zm-23.96-.01c5.39.08 10.78.02 16.17.02 0 11.41.01 22.81 0 34.22-5.4-.01-10.79.02-16.18-.02-.01-11.41-.04-22.82 0-34.22Zm-.02 102.33c5.4.01 10.81-.03 16.22.01-.06 11.35-.03 22.69-.02 34.04-5.39-.01-10.77-.01-16.16.01-.1-11.36-.02-22.71-.04-34.06Zm.05 119.65c5.39.07 10.78-.01 16.18.06-.06 11.35-.06 22.71 0 34.06-5.42.02-10.84.05-16.25-.01.07-11.37-.06-22.74.07-34.11Zm16.17 244.39c-.05 11.38-.04 22.75 0 34.13-5.41.03-10.81-.03-16.21.04-.04-11.39 0-22.77-.02-34.15 5.41-.08 10.82-.03 16.23-.02Zm-.01 275.16c-5.4.04-10.79-.01-16.18.04-.07-11.36-.02-22.73-.03-34.09 5.41-.02 10.82-.05 16.24.03-.09 11.34-.04 22.68-.03 34.02Zm23.96 201.22c-5.4 0-10.8-.01-16.19 0-.03-11.37-.03-22.74 0-34.1 5.4-.02 10.8-.03 16.2 0-.05 11.37-.02 22.73-.01 34.1Zm0-201.22c-5.39.04-10.78-.01-16.17.05-.09-11.37-.01-22.74-.04-34.1 5.4-.03 10.81-.03 16.22 0-.04 11.35-.03 22.7-.01 34.05Zm0-485.43c-5.41-.01-10.81.06-16.21-.01.05-11.37-.07-22.74.06-34.11 5.38.06 10.77.04 16.16.03-.04 11.36-.03 22.73-.01 34.09Zm82.88-256.11c5.38.09 10.76.04 16.15.03-.03 11.42-.01 22.83-.01 34.24-5.39-.04-10.79-.01-16.17-.03 0-11.41-.08-22.83.03-34.24Zm-7.82 625.06c-5.4.01-10.8-.03-16.19.03 0-11.42-.07-22.85.03-34.27 5.38.08 10.76.03 16.15.05 0 11.39-.02 22.79 0 34.19Zm-.02-124.52c-5.39-.04-10.77-.03-16.15 0-.09-11.38 0-22.77-.04-34.15 5.4-.06 10.81-.05 16.22.01-.07 11.38 0 22.76-.03 34.14Zm-49.62-34.15c.01 11.38.01 22.77 0 34.15-5.38-.06-10.76-.01-16.13-.03 0-11.37.03-22.75-.02-34.12 5.38-.04 10.76-.06 16.15 0Zm-.01 275.2c-5.39-.06-10.77-.01-16.15-.05.06-11.36.04-22.71.02-34.06 5.38.01 10.76-.03 16.14.02 0 11.36.02 22.72-.01 34.09Zm9.52-741.57c5.37.05 10.75.03 16.14.01.05 11.41 0 22.82.03 34.23-5.41-.03-10.82.06-16.22-.09.04-11.39-.04-22.77.05-34.15Zm16.12 136.38c-5.37-.02-10.74-.03-16.11.01-.11-11.35-.02-22.7-.05-34.05 5.4-.03 10.8-.02 16.21 0-.04 11.35.04 22.7-.05 34.05Zm.04 119.7c-5.4.06-10.8.03-16.19.01 0-11.37-.04-22.74.01-34.11 5.38.03 10.77.06 16.16-.03.04 11.38.01 22.76.02 34.13Zm-16.17 686.67c-.06-11.38-.04-22.75-.02-34.12 5.4 0 10.79 0 16.19.01.01 11.35-.02 22.71.01 34.07-5.4.04-10.79.01-16.18.04Zm16.16-201.2c-5.39-.02-10.78-.01-16.17 0-.04-11.36-.03-22.72 0-34.08 5.39-.04 10.79-.02 16.2 0-.05 11.36.01 22.72-.03 34.08Zm0-372.02c-5.39.02-10.78 0-16.17 0-.04-11.39-.02-22.77-.01-34.16 5.4 0 10.8-.02 16.21.02-.04 11.38 0 22.76-.03 34.14Zm7.81-369.52c5.38.04 10.76.02 16.14 0 .03 11.4 0 22.8.03 34.2-5.4.01-10.79.05-16.19-.03-.02-11.4-.06-22.79.02-34.18Zm16.16 741.54c-5.39-.02-10.78-.02-16.16 0-.08-11.35-.01-22.71-.04-34.06 5.41-.07 10.82-.04 16.24-.01-.09 11.35-.02 22.71-.04 34.07Zm23.98 201.17c-5.4.02-10.79 0-16.18.01-.04-11.37-.02-22.73-.02-34.09 5.4-.02 10.8-.03 16.2.01-.02 11.35-.03 22.71 0 34.07Zm-.01-201.18c-5.39 0-10.78 0-16.16.02-.06-11.37-.04-22.73-.02-34.09 5.4-.03 10.8-.03 16.2 0-.05 11.35-.01 22.71-.02 34.06Zm0-275.19c-.01 11.39-.01 22.78.01 34.17-5.4-.04-10.79-.03-16.17 0-.08-11.38 0-22.76-.04-34.14 5.39-.09 10.79-.04 16.2-.03ZM946.4 417.82c5.38.09 10.76.04 16.14.02.01 11.37 0 22.74.01 34.12-5.4.01-10.79.02-16.18 0 0-11.38-.06-22.76.03-34.14Zm16.13-85.59c-5.36-.08-10.73.15-16.08-.11-.23-11.3-.03-22.61-.09-33.92 5.4-.03 10.8 0 16.21 0-.06 11.34 0 22.69-.04 34.03Zm62.92 322.55c-5.39-.02-10.77.02-16.15-.02-.06-11.35.01-22.7-.04-34.04 5.39-.06 10.79-.05 16.19-.02-.02 11.36-.03 22.72 0 34.08Zm-.01-130.96c-5.39-.01-10.78 0-16.16-.01.02-11.38-.05-22.77.03-34.15 5.38.1 10.77.06 16.16.05-.08 11.37-.01 22.74-.03 34.11Zm27.13 349.76c-5.4 0-10.8.03-16.2 0 0-11.4-.04-22.8.03-34.19 5.39.02 10.79-.01 16.19.03-.04 11.39 0 22.78-.02 34.16Zm0-281.07c-5.4 0-10.79-.04-16.18.03-.06-11.38-.02-22.75-.02-34.13 5.4 0 10.81-.01 16.22 0-.04 11.37 0 22.73-.02 34.1Zm10.95-102.81c5.38.04 10.76.02 16.14 0 .09 11.37.01 22.74.05 34.12-5.4-.02-10.8.03-16.2-.02-.02-11.37-.03-22.73.01-34.1Zm-.01 383.9c-.02-11.4-.01-22.79 0-34.19 5.4-.02 10.8-.01 16.2-.01-.02 11.4-.03 22.8.01 34.2-5.41-.01-10.81 0-16.21 0Zm40.16.01c-5.4-.03-10.8-.01-16.2-.01-.01-11.4-.02-22.79.01-34.18 5.39-.03 10.79-.01 16.19-.03 0 11.4-.01 22.81 0 34.22Zm-16.19-349.81c-.01-11.37-.05-22.73.02-34.09 5.38.04 10.76 0 16.16 0 .03 11.37-.01 22.74.02 34.12-5.41-.04-10.8.02-16.2-.03Zm23.96 130.97c-.01-11.36-.03-22.72.01-34.08 5.39-.01 10.79-.02 16.19 0-.02 11.36-.02 22.72.01 34.09-5.41-.02-10.81.02-16.21-.01Zm-.01-130.97c.03-11.36-.05-22.73.04-34.1 5.38.06 10.78 0 16.17 0-.02 11.37-.02 22.74.01 34.11-5.41-.03-10.82.01-16.22-.02Zm61.27 127.74c5.38-.02 10.76-.02 16.15 0 .01 11.37 0 22.73 0 34.1-5.39-.02-10.78 0-16.16-.02.02-11.36-.01-22.72.01-34.08Zm16.16 401.37c-5.39-.02-10.78-.03-16.16 0-.02-11.4 0-22.79-.02-34.18 5.39.03 10.78 0 16.18 0-.01 11.39 0 22.78 0 34.17Zm-16.17-49.48c.02-11.38-.01-22.75.01-34.12 5.38 0 10.76.02 16.14-.03.03 11.39.03 22.77.01 34.16-5.4-.05-10.78-.05-16.16-.01Zm16.17-76.68c-5.4.02-10.79.03-16.18-.01.02-11.36.02-22.71.01-34.06 5.38-.02 10.77-.04 16.17.01-.01 11.35 0 22.71 0 34.06Zm51.27-275.2c-.02 11.36.11 22.72-.07 34.07-5.38.01-10.77.01-16.14.03-.1-11.37-.01-22.73-.05-34.09 5.42-.06 10.84-.03 16.26-.01Zm-25.65 351.86c-5.38.01-10.77-.04-16.14.03-.09-11.37.01-22.74-.06-34.11 5.4-.05 10.81-.03 16.22 0-.03 11.36 0 22.72-.02 34.08Zm-16.16-76.66c-.03-11.35 0-22.7-.02-34.05 5.39-.07 10.79-.04 16.19-.02 0 11.35-.03 22.7.02 34.06-5.4.06-10.8.03-16.19.01Zm16.17-110.17c-5.4 0-10.8.04-16.19 0 .03-11.37-.02-22.74.02-34.11 5.39.04 10.78-.01 16.18.04-.03 11.35 0 22.71 0 34.07Zm-16.2-49.65c.05-11.33-.02-22.67.04-34 5.38-.03 10.76-.03 16.14 0 .05 11.34-.03 22.69.04 34.03-5.4.28-10.82.22-16.22-.03Zm.02-81.29c0-11.38-.02-22.75.01-34.12 5.39.01 10.78 0 16.18.01-.02 11.36-.04 22.72.01 34.08-5.41.03-10.81.02-16.2.03Zm41.84 493.27c-5.42.06-10.84.04-16.25.04-.04-11.36-.04-22.72 0-34.08h16.06c.41 11.34.07 22.69.19 34.04Zm-.01-209.57c.02 11.35-.01 22.7.01 34.05-5.43.03-10.85.01-16.27.02v-34.1c5.42 0 10.83-.02 16.26.03Zm-16.25-42.57c-.02-11.37-.02-22.74 0-34.1 5.41-.01 10.83-.02 16.26.01-.01 11.35 0 22.71 0 34.07-5.43.05-10.85 0-16.26.02Zm16.26 91.99c-.01 11.36 0 22.73-.01 34.1-5.42.08-10.85.02-16.26.04v-34.16c5.42.01 10.84-.02 16.27.02Zm-.16-202.14c-5.38-.04-10.76.01-16.13-.05.04-11.36 0-22.71.01-34.06 5.38-.04 10.76-.02 16.14-.02.21 11.37.25 22.75-.02 34.13Zm7.86-165.08c5.37-.02 10.75 0 16.13-.01 0 11.37-.01 22.74 0 34.11-5.37-.02-10.73-.01-16.08 0-.11-11.37-.03-22.74-.05-34.11Zm.01 241.13c5.37-.01 10.74 0 16.12-.01-.01 11.37-.01 22.74.01 34.12-5.38-.01-10.76-.02-16.13-.01-.03-11.37-.02-22.74 0-34.1Zm-.01-110.17c5.36-.03 10.74.01 16.12-.02.02 11.37 0 22.75 0 34.13-5.37-.03-10.74 0-16.11-.02-.03-11.37 0-22.73-.01-34.09Zm16.1-15.38c-5.37-.01-10.73.11-16.08-.12-.05-11.36-.01-22.72-.02-34.08 5.36-.02 10.72 0 16.09-.02.06 11.41.05 22.82.01 34.22Zm-16.09 411.83c-.02-11.36-.04-22.72.02-34.08h16.08c.04 11.36 0 22.72.02 34.09-5.38-.02-10.75 0-16.12-.01Zm16.12-126.06c-5.38 0-10.76 0-16.14.01.02-11.39-.01-22.77.02-34.16 5.38.01 10.76 0 16.15.01.09 11.38-.13 22.76-.03 34.14Zm-14.6-414.02c.03-11.4-.05-22.79.05-34.19 5.37-.01 10.76 0 16.14.01.03 11.39-.03 22.79.04 34.18-5.42.01-10.82.01-16.23 0Zm147.07-270.53c5.39-.01 10.78-.03 16.18.01.01 11.4.03 22.79 0 34.19-5.4-.02-10.78-.02-16.16-.01-.03-11.39-.02-22.79-.01-34.19Zm-49.6.03c5.4-.03 10.81-.09 16.22.02.22 11.36 0 22.73.11 34.1-5.46.07-10.91.04-16.35.03.04-11.39.03-22.77.02-34.15Zm16.1 46.31c.46 11.35.08 22.71.21 34.06-5.43.11-10.86.04-16.29.07-.04-11.37 0-22.74-.04-34.1 5.37-.01 10.74.01 16.12-.03Zm-16.1 78.22c5.44-.03 10.87-.04 16.32 0 0 11.36-.06 22.73.03 34.09-5.46.13-10.92.13-16.37.02.05-11.37.02-22.74.02-34.11Zm0 111.8c5.43-.03 10.87-.05 16.32.03-.09 11.36.11 22.73-.1 34.09-5.42.1-10.83.07-16.24.03.05-11.39.02-22.77.02-34.15Zm-9.38 505.16c-5.39-.02-10.79 0-16.17-.03-.03-11.37-.03-22.74 0-34.1 5.39.05 10.78.02 16.18.02-.01 11.36 0 22.73-.01 34.11Zm.01-470.98c-5.4 0-10.79-.01-16.17.01-.06-11.39-.02-22.79-.03-34.19 5.4-.04 10.8-.03 16.2 0-.01 11.39 0 22.79 0 34.18Zm.01-236.35c-5.39.01-10.78-.01-16.17.02-.07-11.4-.03-22.81-.02-34.21 5.39-.03 10.79-.01 16.19 0-.03 11.4-.02 22.79 0 34.19Zm9.35 290.03c5.37-.05 10.74-.03 16.13-.03.37 11.35.17 22.71.12 34.06-5.42.07-10.85.06-16.27.01.06-11.35.04-22.7.02-34.04Zm16.12 417.27c-5.38.03-10.75.03-16.12-.01.03-11.37.02-22.73 0-34.09 5.44.03 10.88.03 16.33 0-.16 11.36.24 22.74-.21 34.1Zm-.04-185.14c-5.37-.06-10.73 0-16.09-.05.04-11.39.04-22.77.01-34.14 5.37-.07 10.74-.01 16.12-.04.31 11.4.36 22.83-.04 34.23Zm-.06-57.43c-5.35-.08-10.69-.06-16.02-.04.04-11.44.01-22.88.01-34.32 5.45.13 10.92-.25 16.36.35-.29 11.33.33 22.69-.35 34.01Zm25.81 242.57c-5.4.02-10.8.03-16.19.01-.02-11.37-.03-22.74.01-34.11 5.38.04 10.77.03 16.17-.01.03 11.36 0 22.73.01 34.11Zm-.01-185.15c-5.39-.05-10.78-.02-16.17-.01-.03-11.41-.04-22.8-.01-34.2 5.4.01 10.8-.02 16.2.01-.02 11.4-.01 22.8-.02 34.2Zm-16.19-285.83c.01-11.39-.02-22.78.01-34.16 5.38-.01 10.78-.02 16.17 0 .05 11.38-.01 22.77.03 34.16-5.41.05-10.81.04-16.21 0Zm16.21-111.82c-5.42.06-10.83.09-16.23-.03.06-11.36.01-22.72.01-34.07 5.4-.08 10.81-.07 16.22-.01-.02 11.37-.02 22.74 0 34.11Zm-.01-124.5c-5.4 0-10.79-.01-16.17 0-.04-11.39-.04-22.79 0-34.18 5.39-.02 10.79-.04 16.19.01-.02 11.39 0 22.78-.01 34.17Zm23.97 707.3c-5.4.02-10.8.03-16.19.01-.01-11.38-.02-22.75 0-34.12 5.38.05 10.77.03 16.16 0 .07 11.37.01 22.74.03 34.11Zm-16.19-185.16c-.01-11.4-.01-22.8 0-34.2h16.18c.01 11.4.02 22.81 0 34.21-5.4-.04-10.79-.02-16.18-.01Zm16.14-57.43c-5.38-.06-10.76.01-16.14-.05-.02-11.41 0-22.82-.01-34.22 5.39-.08 10.79-.06 16.19.01 0 11.42.07 22.84-.04 34.26Zm-16.13-262.56c5.38.01 10.78-.02 16.17.01.03 11.39 0 22.78.01 34.18-5.4.02-10.8.01-16.19 0 0-11.4-.03-22.8.01-34.19Zm-.04-77.66c.04-11.37.02-22.74.02-34.1 5.38-.07 10.78-.03 16.18-.03.05 11.37 0 22.75.03 34.13-5.42.08-10.82.1-16.23 0Zm62.48 401.3c.02 11.36.01 22.72 0 34.09-5.39-.01-10.78 0-16.16-.01-.01-11.36.04-22.71-.03-34.06 5.39-.07 10.79-.03 16.19-.02Zm-.01 136.32c-5.39-.05-10.78.02-16.15-.04 0-11.38.02-22.77-.01-34.15 5.38-.03 10.77-.02 16.16 0 .02 11.39.05 22.79 0 34.19Zm7.81-276.89c5.4.02 10.8.03 16.21-.02-.01 11.38 0 22.77-.01 34.16-5.4.03-10.81.03-16.2 0 .02-11.38.02-22.76 0-34.14Zm16.2 276.89c-5.41-.05-10.82.03-16.22-.04.07-11.39.01-22.77.03-34.16 5.4-.02 10.8-.01 16.21.01-.03 11.39 0 22.79-.02 34.19Zm22.09-277.92c5.42-.03 10.84 0 16.27-.03-.04 11.41.02 22.82-.02 34.23-5.43-.04-10.84 0-16.26-.03.41-11.39-.06-22.78.01-34.17Zm.14-97.44c5.37-.02 10.75 0 16.14 0-.03 11.4-.03 22.81-.02 34.21-5.38-.03-10.75-.02-16.12 0-.18-11.4-.15-22.81 0-34.21Zm16.13 332.91c-5.36-.06-10.72-.03-16.07-.03-.25-11.44-.14-22.88-.04-34.32 5.36.05 10.74.04 16.12.01-.04 11.45-.02 22.89-.01 34.34Zm.01-59.27c-5.38-.03-10.76.02-16.13 0 .03-11.39-.24-22.78.05-34.15 5.35.02 10.72 0 16.09.02-.06 11.38-.04 22.75-.01 34.13Zm-16.01-451.74c-.4-11.41-.24-22.83-.1-34.24 5.35-.03 10.72-.03 16.09-.01.04 11.35-.06 22.7.04 34.05-5.35.27-10.7.05-16.03.2Zm-.15-43.23c-.07-11.37-.08-22.75.04-34.11 5.37.04 10.74.01 16.12.01-.03 11.37-.05 22.74.02 34.11-5.4 0-10.79-.03-16.18-.01Zm.01-225.15c.2-11.37-.45-22.74.06-34.1 5.35.07 10.72.01 16.08.03 0 11.35-.06 22.69.04 34.04-5.4.1-10.79.01-16.18.03Zm25.52 312.98c.03-11.39.01-22.78 0-34.17 5.4.01 10.8 0 16.21 0 .03 11.39-.03 22.79.01 34.18-5.41.05-10.82.04-16.22-.01Zm16.2 44.77c-5.41.01-10.8.01-16.2 0 .02-11.38.02-22.76 0-34.14 5.4-.09 10.8-.04 16.21-.03-.03 11.39.04 22.78-.01 34.17Zm0-311.44c-5.4-.02-10.8-.01-16.18-.01 0-11.37-.01-22.74 0-34.11 5.38-.01 10.77.03 16.16.01.07 11.37.04 22.74.02 34.11Zm.02 178.82c-5.41.03-10.82.04-16.21 0 .02-11.36 0-22.72.01-34.08 5.38.02 10.78.03 16.18-.03.05 11.37-.01 22.74.02 34.11Zm-16.22-259.22c5.38 0 10.76.07 16.16-.02.12 11.37.03 22.74.05 34.1-5.41.01-10.82.06-16.22-.03.04-11.35.04-22.7.01-34.05Zm.03 90.99c5.38.07 10.77.04 16.17.03.02 11.36.02 22.72 0 34.09-5.41.04-10.81.04-16.21-.02.06-11.37 0-22.73.04-34.1Zm16.19 389.6c-.03 11.39.01 22.78-.01 34.17-5.4 0-10.8.02-16.2.02-.01-11.39.05-22.77-.03-34.16 5.41-.12 10.82-.04 16.24-.03Zm-.06 332.88c-5.38-.04-10.75-.06-16.12.01-.04-11.45-.03-22.89-.01-34.33 5.38.02 10.77.03 16.16-.01.02 11.44.07 22.89-.03 34.33Zm.02-59.26c-5.39-.03-10.79.02-16.17-.02 0-11.37.01-22.74 0-34.11 5.4-.02 10.79 0 16.2-.01 0 11.38.04 22.76-.03 34.14Zm-.01-451.76c-5.39-.07-10.77 0-16.15-.04 0-11.4-.02-22.79.01-34.18 5.39-.02 10.78-.05 16.17 0 0 11.4.08 22.81-.03 34.22Zm7.8-77.31c5.38 0 10.76.04 16.14-.04.11 11.37.03 22.75.05 34.12-5.41.04-10.8.03-16.19 0 .01-11.36.02-22.72 0-34.08Zm16.17 87.74c.06 11.41 0 22.81.02 34.22-5.4.02-10.79.01-16.18 0 0-11.4 0-22.8-.01-34.2a1744 1744 0 0 0 16.17-.02Zm-16.17 441.34c.02-11.38.01-22.76.02-34.14 5.37-.02 10.75.02 16.13-.03.09 11.38.01 22.77.05 34.15-5.41 0-10.8 0-16.2.02Zm.02-142.01c0-11.41-.02-22.82.01-34.24 5.36.03 10.73.05 16.11 0 .12 11.41.01 22.83.06 34.24-5.4-.03-10.79-.02-16.18 0Zm16.15-97.43c-5.4-.04-10.78.01-16.16 0-.03-11.4.05-22.79-.03-34.18 5.4-.07 10.81-.02 16.22-.02-.03 11.4.03 22.8-.03 34.2Zm-16.16-480.71c-.01-11.35 0-22.7 0-34.05 5.37-.01 10.75.04 16.14-.04.1 11.37.01 22.73.06 34.09-5.41.05-10.81.05-16.2 0Zm98.15 55.41c0 11.35.05 22.71-.03 34.06-5.38-.04-10.76-.02-16.13-.02-.05-11.35 0-22.71-.03-34.07 5.39.05 10.79 0 16.19.03Zm-16.18 89.32c5.39-.02 10.78-.02 16.18 0 .02 11.39.02 22.78.01 34.18h-16.2c.02-11.4 0-22.79.01-34.19Zm16.19 491.85c-.01 11.37.04 22.74-.03 34.11-5.39-.04-10.78-.02-16.16-.01-.02-11.37.02-22.73-.02-34.09 5.4-.04 10.8-.04 16.21 0Zm-.02 299.19c-5.4-.01-10.79-.01-16.18-.02.01-11.39.02-22.78-.01-34.17 5.4-.04 10.8-.03 16.22 0-.02 11.39.01 22.78-.03 34.18Zm-16.17-413.59c0-11.38-.01-22.75 0-34.12 5.39.01 10.78.05 16.17 0 .06 11.37 0 22.75.03 34.13-5.41-.02-10.81 0-16.2 0Zm23.98-377.46c5.39 0 10.78-.01 16.18 0v34.19h-16.2c.02-11.4-.02-22.8.02-34.2Zm16.19 178.89c-.03 11.39-.01 22.78-.01 34.17-5.41 0-10.81-.01-16.2 0 0-11.4.02-22.79-.01-34.18 5.4-.03 10.81-.04 16.22.01Zm-.04 347.06c-5.38-.01-10.76-.01-16.14.02-.06-11.37-.01-22.74-.03-34.1 5.39-.03 10.78-.04 16.19-.01 0 11.36.03 22.73-.02 34.09Zm.01 13.81c.02 11.37.05 22.74-.01 34.12-5.39-.05-10.77-.03-16.14-.01-.06-11.37 0-22.73-.04-34.09 5.39-.05 10.79-.03 16.19-.02Zm.03 136.32c-5.4-.01-10.81-.01-16.2 0-.03-11.39.03-22.79-.03-34.18 5.41-.05 10.82 0 16.25-.03-.05 11.4-.04 22.8-.02 34.21Zm9.41-765.4c5.39.01 10.78 0 16.18 0-.02 11.36 0 22.71 0 34.06-5.4-.03-10.79-.01-16.18 0-.05-11.35-.04-22.71 0-34.06Zm16.19 880.35c-5.4.04-10.79-.03-16.17.04-.09-11.41-.06-22.81-.01-34.22 5.39-.01 10.78-.04 16.18.03-.02 11.38-.03 22.76 0 34.15Zm-.02-514.16c-5.4-.02-10.8-.02-16.19 0-.02-11.36-.01-22.72 0-34.08 5.4-.05 10.8-.04 16.22-.01-.05 11.36-.02 22.73-.03 34.09Zm.01-63.82c-5.4.02-10.79-.01-16.17.02-.06-11.4-.07-22.8 0-34.2 5.39-.02 10.79-.03 16.19.02-.04 11.38-.03 22.77-.02 34.16Zm-16.19-131.65c5.39-.03 10.78-.02 16.18 0 .02 11.43 0 22.86.01 34.29-5.38-.01-10.76-.03-16.13.02-.15-11.43-.07-22.87-.06-34.31Zm16.2-47.23c-5.4.05-10.8.01-16.19.03-.05-11.41-.05-22.81 0-34.22 5.4.04 10.8 0 16.21.03-.06 11.39-.03 22.77-.02 34.16Zm105.15-123.46c5.4-.05 10.8-.01 16.22-.04-.04 11.34-.04 22.69.01 34.03-5.4.06-10.8 0-16.19.05-.09-11.35-.02-22.69-.04-34.04Zm16.21 466.73c-5.41.02-10.82 0-16.21.01.03-11.37-.04-22.75.03-34.12 5.39.05 10.79-.01 16.2.05-.06 11.35-.02 22.71-.02 34.06Zm-40.15-466.74c5.39-.04 10.79 0 16.19-.03-.02 11.35-.04 22.7 0 34.05-5.4.02-10.8-.01-16.18.02-.06-11.34-.04-22.69-.01-34.04Zm16.19 123.49h-16.21c-.01-11.4-.01-22.79 0-34.19 5.39-.01 10.79 0 16.2-.01 0 11.4-.03 22.8.01 34.2Zm-16.19 47.2c5.38 0 10.77-.02 16.17.02 0 11.42 0 22.84-.01 34.26-5.4-.03-10.8.16-16.18-.17.01-11.37-.04-22.74.02-34.11Zm16.19 97.47c-.04 11.4-.01 22.81-.01 34.22-5.4-.03-10.8-.03-16.19-.02-.03-11.39 0-22.79-.02-34.18 5.4-.05 10.81-.01 16.22-.02Zm-64.14-178.85c5.39-.02 10.78 0 16.19-.02.01 11.4-.03 22.8.02 34.2-5.41-.01-10.81.03-16.21-.03-.01-11.38 0-22.77 0-34.15Zm16.2 276.82c-5.4.06-10.8 0-16.18.04-.04-11.37-.03-22.74-.01-34.11 5.39-.01 10.79.02 16.2 0-.06 11.35-.02 22.7-.01 34.06Zm-.01-63.76c-5.4-.02-10.79-.02-16.17-.01-.05-11.39-.02-22.78-.02-34.17 5.39-.06 10.79-.02 16.2-.02-.03 11.39-.01 22.79-.01 34.2Zm-16.18-131.67c5.38-.02 10.76 0 16.16 0 .04 11.42.01 22.84.01 34.27-5.39.04-10.78-.02-16.15.03-.07-11.43-.03-22.87-.02-34.3Zm-7.77 393.48c-5.41.02-10.81-.01-16.2.02-.02-11.39-.04-22.78.01-34.17 5.39-.01 10.79 0 16.2.01-.05 11.38-.03 22.76-.01 34.14Zm-.01-261.81c-5.4-.01-10.8-.01-16.19-.01-.04-11.39-.01-22.79-.01-34.18 5.4-.04 10.8-.01 16.21-.03-.03 11.41-.02 22.81-.01 34.22Zm-16.18-302.37c5.39-.02 10.79 0 16.19-.02-.03 11.35-.02 22.69-.01 34.04-5.4.02-10.79-.01-16.18.01-.04-11.34-.05-22.69 0-34.03Zm-.01 793.45c5.39.01 10.79-.01 16.2.01-.02 11.39-.05 22.79.01 34.18-5.41 0-10.81.01-16.21.01-.02-11.4-.03-22.8 0-34.2Zm-.01-62.28c5.39.02 10.78 0 16.19.01.01 11.4-.01 22.8.01 34.21-5.4-.02-10.8-.02-16.19-.02-.04-11.4 0-22.8-.01-34.2Zm16.21-68.02c-5.4.01-10.8-.01-16.19.01-.05-11.37-.03-22.74 0-34.11 5.39 0 10.79.01 16.2-.01-.05 11.36-.04 22.73-.01 34.11Zm-16.2 217.2c-.02-11.39-.03-22.78 0-34.17 5.39-.08 10.8-.03 16.21-.04-.03 11.39-.06 22.78 0 34.17-5.41.05-10.82.03-16.22.04Zm0-265.09c-.05-11.36 0-22.73-.02-34.08 5.4-.08 10.81-.01 16.23-.03-.03 11.35-.06 22.71 0 34.06-5.41.05-10.82.03-16.22.05Zm23.96 150.11c-.01-11.4 0-22.8-.01-34.2 5.39.02 10.79 0 16.19 0 .01 11.4-.01 22.81.02 34.21-5.41-.01-10.81-.01-16.2-.01Zm16.2-102.23c-5.4.02-10.79 0-16.18.02-.04-11.37-.04-22.74-.01-34.1 5.39-.02 10.79 0 16.19-.03-.02 11.37-.03 22.74 0 34.11Zm-16.19-47.88c-.03-11.37 0-22.73-.02-34.08 5.4-.07 10.8 0 16.21-.04-.01 11.35-.05 22.71.02 34.07-5.41.05-10.81.03-16.21.05Zm40.15-148.51c-5.41 0-10.81-.01-16.2 0 .01-11.38 0-22.75 0-34.12 5.4.04 10.81-.02 16.22.04-.06 11.36-.01 22.72-.02 34.07Zm.01 114.39c-.03 11.36-.04 22.73.01 34.1-5.4.02-10.8-.01-16.19.02-.06-11.36 0-22.71-.04-34.07 5.4-.1 10.81-.01 16.22-.05Zm-.03 299.22c-5.4-.03-10.79-.02-16.17-.02 0-11.41-.04-22.81.02-34.21 5.39-.01 10.78.03 16.19.01-.07 11.4.01 22.81-.04 34.22Zm-16.17-114.98c-.01-11.41.01-22.81-.01-34.21 5.39.02 10.79 0 16.19.01.02 11.39-.04 22.79.03 34.19-5.41.01-10.82 0-16.21.01Zm0-102.22c.01-11.37-.04-22.74.02-34.11 5.39 0 10.78.01 16.18-.02-.02 11.37-.05 22.74.02 34.11-5.41.03-10.82 0-16.22.02Zm16.2-629.15c-5.4.04-10.8 0-16.19.02-.02-11.34-.04-22.69.01-34.04 5.39-.02 10.79 0 16.2-.01-.06 11.34-.04 22.69-.02 34.03Zm7.78 398.62c5.39.05 10.79-.01 16.2.06-.04 11.35-.02 22.7-.02 34.06-5.41 0-10.82-.01-16.21 0 .03-11.37-.03-22.75.03-34.12Zm-.01 182.63c-.02-11.37-.03-22.74 0-34.1 5.4-.03 10.8 0 16.2-.02-.02 11.36-.05 22.71.03 34.07-5.42.05-10.83.02-16.23.05Zm40.15 265.09c-5.4-.02-10.79 0-16.18 0-.05-11.4-.02-22.79-.01-34.18 5.4-.05 10.8 0 16.22-.04-.06 11.41-.02 22.81-.03 34.22Zm-16.17-265.09c-.06-11.37-.04-22.74-.01-34.11 5.39-.02 10.8.01 16.2-.01-.02 11.36-.08 22.71.03 34.07-5.41.05-10.82.03-16.22.05Zm83.08-484.95c5.39-.03 10.79 0 16.2 0 .02 11.39 0 22.79 0 34.19-5.4.01-10.8.02-16.2-.01v-34.17Zm-25.67 276.57c.1-7.06-.28-14.13.3-21.17 5.31.02 10.64.04 15.97-.02.08 11.44 0 22.88.04 34.32-5.33-.13-10.65.12-15.95-.12-.69-4.3-.27-8.68-.36-13.01Zm.24 313.3c-.53-11.36-.08-22.75-.26-34.11 5.44-.1 10.89-.09 16.35-.04-.03 11.38-.06 22.75.01 34.13-5.37 0-10.74-.04-16.1.02Zm-.06-555.71c-.26-11.39-.37-22.81.07-34.19 5.35.04 10.71-.01 16.08.05-.03 11.37-.05 22.75.01 34.13-5.4.06-10.78.05-16.16.01Zm41.7 363.5c-.01 11.37.01 22.74-.02 34.11-5.4-.01-10.79-.01-16.18 0-.02-11.38.01-22.75-.02-34.13 5.4-.04 10.81-.05 16.22.02Zm-.06 192.24c-5.39-.09-10.77-.06-16.14-.05v-34.15c5.4 0 10.8-.05 16.21.04-.05 11.39.06 22.77-.07 34.16Zm-16.14-624.48c.01-11.38 0-22.76 0-34.13 5.38 0 10.78.03 16.18-.02.05 11.39-.02 22.77.04 34.16-5.42.04-10.83.07-16.22-.01Z" style="stroke-width:.09px;stroke:#000"/>
  </g>
</svg>