<svg id="visual" viewBox="0 0 900 600" width="900" height="600" xmlns="http://www.w3.org/2000/svg" xmlns:xlink="http://www.w3.org/1999/xlink" version="1.1"><g stroke-width="1" stroke-linejoin="bevel"><path d="M463 315L480 377L530.5 317Z" fill="#c32123" stroke="#c32123"></path><path d="M480 377L588.5 399L530.5 317Z" fill="#6a1d18" stroke="#6a1d18"></path><path d="M463 315L370.5 397L480 377Z" fill="#95201e" stroke="#95201e"></path><path d="M480 377L572.5 467L588.5 399Z" fill="#2f130e" stroke="#2f130e"></path><path d="M689 319L596.5 235L530.5 317Z" fill="#2f130e" stroke="#2f130e"></path><path d="M530.5 317L429 176L463 315Z" fill="#ac2120" stroke="#ac2120"></path><path d="M463 493L572.5 467L480 377Z" fill="#ac2120" stroke="#ac2120"></path><path d="M370.5 397L463 493L480 377Z" fill="#421712" stroke="#421712"></path><path d="M596.5 235L429 176L530.5 317Z" fill="#2f130e" stroke="#2f130e"></path><path d="M463 315L317.5 337L370.5 397Z" fill="#020202" stroke="#020202"></path><path d="M376.5 182L317.5 337L463 315Z" fill="#da1f26" stroke="#da1f26"></path><path d="M690 396L689 319L588.5 399Z" fill="#6a1d18" stroke="#6a1d18"></path><path d="M588.5 399L689 319L530.5 317Z" fill="#ac2120" stroke="#ac2120"></path><path d="M429 176L376.5 182L463 315Z" fill="#da1f26" stroke="#da1f26"></path><path d="M646 509L690 396L588.5 399Z" fill="#1e0d08" stroke="#1e0d08"></path><path d="M565.5 600L646 509L572.5 467Z" fill="#2f130e" stroke="#2f130e"></path><path d="M572.5 467L646 509L588.5 399Z" fill="#6a1d18" stroke="#6a1d18"></path><path d="M685 87L549.5 113L596.5 235Z" fill="#1e0d08" stroke="#1e0d08"></path><path d="M596.5 235L549.5 113L429 176Z" fill="#ac2120" stroke="#ac2120"></path><path d="M429 176L479 69L376.5 182Z" fill="#2f130e" stroke="#2f130e"></path><path d="M821.5 283L698 218L689 319Z" fill="#c32123" stroke="#c32123"></path><path d="M689 319L698 218L596.5 235Z" fill="#ac2120" stroke="#ac2120"></path><path d="M370.5 397L324.5 522L463 493Z" fill="#ac2120" stroke="#ac2120"></path><path d="M463 493L565.5 600L572.5 467Z" fill="#ac2120" stroke="#ac2120"></path><path d="M258 488L324.5 522L370.5 397Z" fill="#7f1f1b" stroke="#7f1f1b"></path><path d="M753.5 482L752.5 387L690 396Z" fill="#da1f26" stroke="#da1f26"></path><path d="M690 396L752.5 387L689 319Z" fill="#c32123" stroke="#c32123"></path><path d="M253 191L235 308L317.5 337Z" fill="#c32123" stroke="#c32123"></path><path d="M317.5 337L236 411L370.5 397Z" fill="#421712" stroke="#421712"></path><path d="M235 308L236 411L317.5 337Z" fill="#1e0d08" stroke="#1e0d08"></path><path d="M418 600L565.5 600L463 493Z" fill="#ac2120" stroke="#ac2120"></path><path d="M549.5 113L479 69L429 176Z" fill="#da1f26" stroke="#da1f26"></path><path d="M376.5 182L253 191L317.5 337Z" fill="#c32123" stroke="#c32123"></path><path d="M324.5 522L418 600L463 493Z" fill="#020202" stroke="#020202"></path><path d="M236 411L258 488L370.5 397Z" fill="#020202" stroke="#020202"></path><path d="M324.5 522L352.5 600L418 600Z" fill="#ac2120" stroke="#ac2120"></path><path d="M479 69L302.5 135L376.5 182Z" fill="#7f1f1b" stroke="#7f1f1b"></path><path d="M302.5 135L253 191L376.5 182Z" fill="#1e0d08" stroke="#1e0d08"></path><path d="M646 509L753.5 482L690 396Z" fill="#1e0d08" stroke="#1e0d08"></path><path d="M654 600L753.5 482L646 509Z" fill="#6a1d18" stroke="#6a1d18"></path><path d="M197 600L352.5 600L324.5 522Z" fill="#1e0d08" stroke="#1e0d08"></path><path d="M565.5 600L654 600L646 509Z" fill="#c32123" stroke="#c32123"></path><path d="M698 218L685 87L596.5 235Z" fill="#c32123" stroke="#c32123"></path><path d="M573.5 0L488 0L479 69Z" fill="#421712" stroke="#421712"></path><path d="M770.5 133L685 87L698 218Z" fill="#421712" stroke="#421712"></path><path d="M900 267L821.5 283L900 434Z" fill="#561a15" stroke="#561a15"></path><path d="M752.5 387L821.5 283L689 319Z" fill="#95201e" stroke="#95201e"></path><path d="M479 69L344.5 0L302.5 135Z" fill="#561a15" stroke="#561a15"></path><path d="M573.5 0L479 69L549.5 113Z" fill="#020202" stroke="#020202"></path><path d="M820.5 198L770.5 133L698 218Z" fill="#95201e" stroke="#95201e"></path><path d="M695 0L573.5 0L685 87Z" fill="#ac2120" stroke="#ac2120"></path><path d="M685 87L573.5 0L549.5 113Z" fill="#1e0d08" stroke="#1e0d08"></path><path d="M821.5 283L820.5 198L698 218Z" fill="#2f130e" stroke="#2f130e"></path><path d="M73.5 188L131.5 326L253 191Z" fill="#ac2120" stroke="#ac2120"></path><path d="M253 191L131.5 326L235 308Z" fill="#1e0d08" stroke="#1e0d08"></path><path d="M235 308L131.5 326L236 411Z" fill="#ac2120" stroke="#ac2120"></path><path d="M236 411L93.5 495L258 488Z" fill="#561a15" stroke="#561a15"></path><path d="M488 0L344.5 0L479 69Z" fill="#da1f26" stroke="#da1f26"></path><path d="M302.5 135L228 60L253 191Z" fill="#ac2120" stroke="#ac2120"></path><path d="M131.5 326L115.5 383L236 411Z" fill="#020202" stroke="#020202"></path><path d="M258 488L197 600L324.5 522Z" fill="#ac2120" stroke="#ac2120"></path><path d="M344.5 0L228 60L302.5 135Z" fill="#6a1d18" stroke="#6a1d18"></path><path d="M788.5 0L695 0L685 87Z" fill="#561a15" stroke="#561a15"></path><path d="M788.5 0L685 87L770.5 133Z" fill="#da1f26" stroke="#da1f26"></path><path d="M93.5 495L197 600L258 488Z" fill="#2f130e" stroke="#2f130e"></path><path d="M654 600L812.5 600L753.5 482Z" fill="#561a15" stroke="#561a15"></path><path d="M900 434L821.5 283L752.5 387Z" fill="#1e0d08" stroke="#1e0d08"></path><path d="M821.5 283L900 267L820.5 198Z" fill="#c32123" stroke="#c32123"></path><path d="M820.5 198L900 91L770.5 133Z" fill="#2f130e" stroke="#2f130e"></path><path d="M900 434L752.5 387L753.5 482Z" fill="#7f1f1b" stroke="#7f1f1b"></path><path d="M900 504L900 434L753.5 482Z" fill="#561a15" stroke="#561a15"></path><path d="M344.5 0L243 0L228 60Z" fill="#da1f26" stroke="#da1f26"></path><path d="M228 60L150.5 68L253 191Z" fill="#421712" stroke="#421712"></path><path d="M900 267L900 206L820.5 198Z" fill="#1e0d08" stroke="#1e0d08"></path><path d="M115.5 383L93.5 495L236 411Z" fill="#1e0d08" stroke="#1e0d08"></path><path d="M812.5 600L900 504L753.5 482Z" fill="#020202" stroke="#020202"></path><path d="M131.5 0L150.5 68L228 60Z" fill="#7f1f1b" stroke="#7f1f1b"></path><path d="M131.5 326L0 260L115.5 383Z" fill="#020202" stroke="#020202"></path><path d="M115.5 383L0 422L93.5 495Z" fill="#7f1f1b" stroke="#7f1f1b"></path><path d="M900 91L788.5 0L770.5 133Z" fill="#7f1f1b" stroke="#7f1f1b"></path><path d="M150.5 68L73.5 188L253 191Z" fill="#c32123" stroke="#c32123"></path><path d="M93.5 495L123.5 600L197 600Z" fill="#421712" stroke="#421712"></path><path d="M900 206L900 91L820.5 198Z" fill="#421712" stroke="#421712"></path><path d="M812.5 600L900 600L900 504Z" fill="#2f130e" stroke="#2f130e"></path><path d="M243 0L131.5 0L228 60Z" fill="#c32123" stroke="#c32123"></path><path d="M0 80L0 166L73.5 188Z" fill="#c32123" stroke="#c32123"></path><path d="M0 166L0 260L73.5 188Z" fill="#421712" stroke="#421712"></path><path d="M73.5 188L0 260L131.5 326Z" fill="#c32123" stroke="#c32123"></path><path d="M93.5 495L0 600L123.5 600Z" fill="#ac2120" stroke="#ac2120"></path><path d="M0 260L0 422L115.5 383Z" fill="#020202" stroke="#020202"></path><path d="M0 422L0 482L93.5 495Z" fill="#1e0d08" stroke="#1e0d08"></path><path d="M0 80L73.5 188L150.5 68Z" fill="#020202" stroke="#020202"></path><path d="M900 91L900 0L788.5 0Z" fill="#c32123" stroke="#c32123"></path><path d="M131.5 0L0 80L150.5 68Z" fill="#1e0d08" stroke="#1e0d08"></path><path d="M0 482L0 600L93.5 495Z" fill="#c32123" stroke="#c32123"></path><path d="M131.5 0L0 0L0 80Z" fill="#c32123" stroke="#c32123"></path></g></svg>