<?xml version="1.0" standalone="no"?>
<!DOCTYPE svg PUBLIC "-//W3C//DTD SVG 20010904//EN"
 "http://www.w3.org/TR/2001/REC-SVG-20010904/DTD/svg10.dtd">
<svg version="1.0" xmlns="http://www.w3.org/2000/svg"
 width="1280.000000pt" height="1280.000000pt" viewBox="0 0 1280.000000 1280.000000"
 preserveAspectRatio="xMidYMid meet">

<g transform="translate(0.000000,1280.000000) scale(0.100000,-0.100000)"
fill="#000000" stroke="none">
<path d="M6105 12794 c-946 -56 -1774 -274 -2577 -675 -1610 -806 -2823 -2285
-3298 -4024 -160 -585 -224 -1071 -225 -1690 0 -433 25 -728 91 -1105 386
-2196 1872 -4021 3947 -4849 561 -224 1158 -365 1812 -428 226 -21 817 -24
1040 -5 853 75 1636 292 2369 659 1908 955 3225 2817 3485 4928 37 297 46 446
46 795 0 428 -25 725 -91 1100 -385 2189 -1868 4017 -3929 4842 -578 231
-1173 373 -1815 433 -154 15 -719 27 -855 19z m1563 -2671 c33 -364 171 -757
360 -1023 134 -189 366 -391 564 -491 205 -103 519 -186 763 -202 l40 -2 3
-627 2 -628 -63 0 c-140 0 -426 46 -652 105 -366 95 -673 238 -921 426 l-104
79 0 -1303 c0 -826 -4 -1346 -11 -1422 -83 -951 -601 -1714 -1370 -2019 -145
-58 -304 -100 -484 -128 -328 -51 -792 -13 -1099 91 -522 177 -935 486 -1218
911 -515 772 -498 1866 40 2682 429 648 1119 1005 1892 975 148 -6 315 -22
332 -33 4 -3 8 -307 8 -676 l0 -671 -38 7 c-94 15 -273 18 -372 7 -470 -53
-793 -319 -907 -748 -23 -86 -26 -118 -27 -268 -1 -179 6 -230 51 -370 57
-179 153 -319 290 -423 360 -274 880 -280 1252 -15 130 93 271 262 335 404 29
63 62 229 76 384 6 70 10 1008 10 2608 l0 2497 618 0 619 0 11 -127z"/>
</g>
</svg>
