<?xml version="1.0" encoding="UTF-8"?>
<svg id="Layer_2" data-name="Layer 2" xmlns="http://www.w3.org/2000/svg" viewBox="0 0 379.72 379.73">
  <defs>
    <style>
      .cls-1 {
        opacity: .5;
        animation: rotate 3s ease-in-out infinite;
        transform-origin: center;
      }

      .cls-2, .cls-3 {
        fill: none;
      }

      .cls-4, .cls-5 {
        fill: #ed1c24;
      }

      .cls-5, .cls-3 {
        stroke: #ed1c24;
        stroke-miterlimit: 10;
        stroke-width: 2px;
      }

      .cls-6 {
        font-family: MicrosoftJhengHeiLight, 'Microsoft JhengHei';
        font-size: 20px;
      }

      .cls-7 {
        fill: #231f20;
      }

      .cls-8 {
        animation: rotate 10s ease-in-out infinite;
        transform-origin: center;
      }

      @keyframes rotate {
        0% {
          transform: rotate(0deg);
        }
        50% {
          transform: rotate(180deg);
        }
        100% {
          transform: rotate(0deg);
        }
      }
    </style>
  </defs>
  <g id="Layer_1-2" data-name="Layer 1">
    <g>
      <g>
        <text class="cls-6" transform="translate(181.17 96.47)"><tspan x="0" y="0">12</tspan></text>
        <text class="cls-6" transform="translate(184.05 297.88)"><tspan x="0" y="0">6</tspan></text>
        <text class="cls-6" transform="translate(286.85 198.18)"><tspan x="0" y="0">3</tspan></text>
        <text class="cls-6" transform="translate(82.28 198.81)"><tspan x="0" y="0">9</tspan></text>
        <text class="cls-6" transform="translate(241.39 113.21)"><tspan x="0" y="0">1</tspan></text>
        <text class="cls-6" transform="translate(241.11 280.4)"><tspan x="0" y="0">5</tspan></text>
        <text class="cls-6" transform="translate(272.62 248.96)"><tspan x="0" y="0">4</tspan></text>
        <text class="cls-6" transform="translate(274.23 149.98)"><tspan x="0" y="0">2</tspan></text>
        <text class="cls-6" transform="translate(131.48 113.21)"><tspan x="0" y="0">11</tspan></text>
        <text class="cls-6" transform="translate(133.41 281.4)"><tspan x="0" y="0">7</tspan></text>
        <text class="cls-6" transform="translate(97.54 248.96)"><tspan x="0" y="0">8</tspan></text>
        <text class="cls-6" transform="translate(94.23 149.98)"><tspan x="0" y="0">10</tspan></text>
      </g>
      <g>
        <path class="cls-2" d="m308.24,189.89c0,32.72-13.26,62.35-34.71,83.79s-51.07,34.71-83.79,34.71-62.35-13.26-83.79-34.71c-21.44-21.44-34.71-51.07-34.71-83.79s13.26-62.35,34.71-83.79c21.44-21.44,51.07-34.71,83.79-34.71s62.35,13.26,83.79,34.71c21.44,21.44,34.71,51.07,34.71,83.79Z"/>
        <circle class="cls-7" cx="189.87" cy="71.37" r="3.5"/>
        <circle class="cls-7" cx="249.14" cy="87.23" r="3.5"/>
        <circle class="cls-7" cx="308.36" cy="189.87" r="3.5"/>
        <circle class="cls-7" cx="292.5" cy="249.13" r="3.5"/>
        <circle class="cls-7" cx="249.12" cy="292.51" r="3.5"/>
        <circle class="cls-7" cx="189.86" cy="308.36" r="3.5"/>
        <circle class="cls-7" cx="130.61" cy="292.51" r="3.5"/>
        <circle class="cls-7" cx="87.22" cy="249.14" r="3.5"/>
        <circle class="cls-7" cx="71.36" cy="189.86" r="3.5"/>
        <circle class="cls-7" cx="87.22" cy="130.61" r="3.5"/>
        <circle class="cls-7" cx="130.6" cy="87.22" r="3.5"/>
        <g>
          <circle class="cls-4" cx="202.14" cy="72.03" r="1"/>
          <circle class="cls-4" cx="214.39" cy="73.95" r="1"/>
          <circle class="cls-4" cx="226.37" cy="77.16" r="1"/>
          <circle class="cls-4" cx="237.95" cy="81.6" r="1"/>
          <circle class="cls-4" cx="259.41" cy="94.02" r="1"/>
          <circle class="cls-4" cx="269.04" cy="101.83" r="1"/>
          <circle class="cls-4" cx="277.81" cy="110.6" r="1"/>
          <circle class="cls-4" cx="285.62" cy="120.23" r="1"/>
        </g>
        <circle class="cls-7" cx="292.48" cy="130.64" r="3.5"/>
        <g>
          <circle class="cls-4" cx="177.39" cy="72.02" r="1"/>
          <circle class="cls-4" cx="165.13" cy="73.95" r="1"/>
          <circle class="cls-4" cx="153.15" cy="77.16" r="1"/>
          <circle class="cls-4" cx="141.57" cy="81.59" r="1"/>
          <circle class="cls-4" cx="120.11" cy="94.01" r="1"/>
          <circle class="cls-4" cx="110.48" cy="101.82" r="1"/>
          <circle class="cls-4" cx="101.71" cy="110.59" r="1"/>
          <circle class="cls-4" cx="93.9" cy="120.22" r="1"/>
        </g>
        <g>
          <circle class="cls-4" cx="81.57" cy="141.64" r="1"/>
          <circle class="cls-4" cx="77.11" cy="153.22" r="1"/>
          <circle class="cls-4" cx="73.9" cy="165.2" r="1"/>
          <circle class="cls-4" cx="71.95" cy="177.44" r="1"/>
          <circle class="cls-4" cx="71.98" cy="202.23" r="1"/>
          <circle class="cls-4" cx="73.93" cy="214.48" r="1"/>
          <circle class="cls-4" cx="77.14" cy="226.46" r="1"/>
          <circle class="cls-4" cx="81.57" cy="238.04" r="1"/>
        </g>
        <g>
          <circle class="cls-4" cx="177.37" cy="307.75" r="1"/>
          <circle class="cls-4" cx="165.12" cy="305.83" r="1"/>
          <circle class="cls-4" cx="153.14" cy="302.62" r="1"/>
          <circle class="cls-4" cx="141.56" cy="298.18" r="1"/>
          <circle class="cls-4" cx="120.1" cy="285.76" r="1"/>
          <circle class="cls-4" cx="110.47" cy="277.95" r="1"/>
          <circle class="cls-4" cx="101.7" cy="269.18" r="1"/>
          <circle class="cls-4" cx="93.89" cy="259.55" r="1"/>
        </g>
        <g>
          <circle class="cls-4" cx="202.3" cy="307.8" r="1"/>
          <circle class="cls-4" cx="214.56" cy="305.88" r="1"/>
          <circle class="cls-4" cx="226.54" cy="302.67" r="1"/>
          <circle class="cls-4" cx="238.12" cy="298.24" r="1"/>
          <circle class="cls-4" cx="259.57" cy="285.82" r="1"/>
          <circle class="cls-4" cx="269.2" cy="278.01" r="1"/>
          <circle class="cls-4" cx="277.97" cy="269.23" r="1"/>
          <circle class="cls-4" cx="285.78" cy="259.6" r="1"/>
        </g>
        <g>
          <circle class="cls-4" cx="298.17" cy="238.11" r="1"/>
          <circle class="cls-4" cx="302.63" cy="226.54" r="1"/>
          <circle class="cls-4" cx="305.84" cy="214.55" r="1"/>
          <circle class="cls-4" cx="307.79" cy="202.31" r="1"/>
          <circle class="cls-4" cx="307.76" cy="177.52" r="1"/>
          <circle class="cls-4" cx="305.81" cy="165.27" r="1"/>
          <circle class="cls-4" cx="302.6" cy="153.29" r="1"/>
          <circle class="cls-4" cx="298.17" cy="141.71" r="1"/>
        </g>
      </g>
    </g>
    <g class="cls-1">
      <path class="cls-3" d="m214.25,35.88c-7.08-1.11-14.31-1.75-21.67-1.86m18.62,21.11c-6.19-.97-12.53-1.53-18.96-1.64m-5.1-19.48c-7.36.12-14.59.76-21.67,1.86m22.01,17.61c-6.44.11-12.77.66-18.96,1.64m-68.14,31.8c-4.79,4.16-9.29,8.66-13.45,13.45m.67-28.16c-5.48,4.76-10.62,9.9-15.38,15.38m47.39-14.66c-5.46,3.28-10.66,6.94-15.58,10.93m5.54-27.63c-6.24,3.75-12.18,7.93-17.81,12.49"/>
      <path class="cls-3" d="m287.96,68.72l-12.27,15.14c-4.92-3.99-10.12-7.65-15.58-10.93-.68-.41-1.36-.82-2.05-1.22-.69-.4-1.37-.79-2.07-1.18-5.53-3.06-11.29-5.76-17.25-8.05-.74-.29-1.49-.56-2.24-.83-.74-.27-1.49-.54-2.24-.79-5.95-2.06-12.1-3.71-18.39-4.93l3.72-19.13c7.19,1.39,14.21,3.27,21.01,5.62.86.29,1.71.59,2.56.9.85.31,1.7.63,2.55.95,6.81,2.62,13.4,5.71,19.71,9.21.8.44,1.58.88,2.36,1.34.79.45,1.57.91,2.35,1.39,6.24,3.75,12.18,7.93,17.81,12.49Z"/>
      <path class="cls-3" d="m163.83,55.95c-6.29,1.22-12.43,2.87-18.39,4.93-.75.25-1.5.51-2.24.79-.75.27-1.49.55-2.23.83-5.96,2.29-11.72,4.99-17.25,8.05l-9.45-17.04c6.31-3.51,12.9-6.59,19.71-9.21.85-.32,1.7-.64,2.55-.94.85-.32,1.71-.62,2.56-.91,6.8-2.35,13.82-4.23,21.01-5.62l3.72,19.13Z"/>
      <path class="cls-3" d="m83.86,104.03c-3.99,4.92-7.65,10.12-10.93,15.58-.41.68-.82,1.36-1.22,2.05-.4.69-.79,1.37-1.18,2.07-3.06,5.53-5.76,11.29-8.05,17.25-.29.74-.56,1.48-.83,2.23-.27.75-.54,1.5-.79,2.24-2.06,5.95-3.71,12.1-4.93,18.39l-19.13-3.72c1.39-7.19,3.27-14.22,5.62-21.02.3-.86.59-1.71.91-2.56.3-.85.62-1.7.94-2.55,2.62-6.81,5.71-13.4,9.21-19.71.44-.8.88-1.58,1.34-2.36.45-.79.91-1.57,1.39-2.35,3.75-6.24,7.93-12.18,12.49-17.81l15.14,12.27Z"/>
      <path class="cls-3" d="m345.71,187.14l-19.48.34c-.11-6.44-.66-12.77-1.64-18.96l19.24-3.06h0c1.11,7.08,1.75,14.31,1.86,21.67Z"/>
      <path class="cls-3" d="m342.91,160.12l-19.13,3.72c-1.22-6.29-2.87-12.43-4.93-18.39l18.43-6.35c2.35,6.8,4.23,13.83,5.62,21.02Z"/>
      <path class="cls-3" d="m335.43,133.99l-18.2,6.98c-2.29-5.96-4.99-11.72-8.05-17.25l17.04-9.45c3.51,6.31,6.59,12.9,9.21,19.71Z"/>
      <path class="cls-3" d="m323.49,109.57l-16.7,10.04c-3.28-5.46-6.94-10.66-10.93-15.58l15.14-12.27c4.56,5.63,8.74,11.57,12.49,17.81Z"/>
      <path class="cls-3" d="m307.5,87.6l-14.71,12.78c-4.17-4.79-8.67-9.29-13.46-13.46l12.78-14.71c5.48,4.76,10.62,9.91,15.39,15.39Z"/>
      <line class="cls-3" x1="214.25" y1="35.88" x2="211.2" y2="55.13"/>
      <line class="cls-3" x1="187.48" y1="53.49" x2="187.14" y2="34.02"/>
      <line class="cls-3" x1="119.6" y1="72.94" x2="109.56" y2="56.24"/>
      <line class="cls-3" x1="100.38" y1="86.93" x2="87.59" y2="72.22"/>
      <path class="cls-3" d="m55.12,168.53c-.97,6.19-1.53,12.52-1.64,18.96l-19.48-.34c.12-7.36.76-14.58,1.86-21.66l19.25,3.05Z"/>
      <path class="cls-3" d="m55.12,211.2l-19.25,3.05c-1.11-7.08-1.75-14.3-1.86-21.66l19.48-.34c.11,6.44.66,12.77,1.64,18.96Z"/>
      <path class="cls-3" d="m60.86,234.28l-18.43,6.35c-2.35-6.8-4.23-13.83-5.62-21.02l19.13-3.72c1.22,6.29,2.87,12.43,4.92,18.39Z"/>
      <path class="cls-3" d="m70.54,256l-17.04,9.45c-3.52-6.31-6.59-12.89-9.21-19.7l18.2-6.98c2.29,5.95,4.99,11.71,8.05,17.24Z"/>
      <path class="cls-3" d="m83.86,275.7l-15.15,12.27c-4.56-5.63-8.74-11.57-12.48-17.8l16.7-10.04c3.28,5.46,6.93,10.65,10.93,15.57Z"/>
      <path class="cls-3" d="m100.38,292.81l-12.78,14.71c-5.48-4.76-10.62-9.9-15.38-15.38l14.71-12.79c4.16,4.79,8.66,9.29,13.45,13.46Z"/>
      <line class="cls-3" x1="192.58" y1="34.02" x2="192.24" y2="53.49"/>
      <path class="cls-3" d="m187.48,326.24l-.34,19.48c-7.36-.12-14.59-.76-21.67-1.86l3.05-19.25c6.19.97,12.53,1.53,18.96,1.64Z"/>
      <line class="cls-3" x1="168.52" y1="55.13" x2="165.47" y2="35.88"/>
      <path class="cls-3" d="m214.25,343.86c-7.08,1.11-14.31,1.75-21.67,1.86l-.34-19.48c6.44-.11,12.77-.66,18.96-1.64l3.05,19.25Z"/>
      <path class="cls-3" d="m240.62,337.29c-6.8,2.35-13.82,4.23-21.01,5.62l-3.72-19.13c6.29-1.22,12.43-2.87,18.39-4.93l6.34,18.43Z"/>
      <line class="cls-3" x1="104.02" y1="83.87" x2="91.75" y2="68.72"/>
      <path class="cls-3" d="m307.5,292.13c-4.76,5.48-9.9,10.62-15.38,15.38l-12.79-14.71c4.8-4.16,9.3-8.66,13.46-13.46l14.71,12.79Z"/>
      <line class="cls-3" x1="86.92" y1="100.38" x2="72.21" y2="87.6"/>
      <path class="cls-3" d="m345.71,192.59c-.12,7.36-.76,14.59-1.86,21.67l-19.25-3.06c.97-6.19,1.53-12.52,1.64-18.96l19.48.34Z"/>
      <path class="cls-3" d="m295.86,275.87c3.99-4.92,7.65-10.12,10.93-15.58.41-.68.82-1.36,1.22-2.05.4-.69.79-1.37,1.18-2.07,3.06-5.53,5.76-11.29,8.05-17.25.29-.74.56-1.48.83-2.23.27-.75.54-1.5.79-2.24,2.06-5.95,3.71-12.1,4.93-18.39l19.13,3.72c-1.39,7.19-3.27,14.22-5.62,21.02-.3.86-.59,1.71-.91,2.56-.3.85-.62,1.7-.94,2.55-2.62,6.81-5.71,13.4-9.21,19.71-.44.8-.88,1.58-1.34,2.36-.45.79-.91,1.57-1.39,2.35-3.75,6.24-7.93,12.18-12.49,17.81l-15.14-12.27Z"/>
      <path class="cls-3" d="m104.02,295.87c4.92,3.99,10.12,7.65,15.58,10.93.68.41,1.36.82,2.05,1.22.69.4,1.37.79,2.07,1.18,5.53,3.06,11.29,5.76,17.25,8.05.74.29,1.48.56,2.23.83.75.27,1.5.54,2.24.79,5.95,2.06,12.1,3.71,18.39,4.93l-3.72,19.13c-7.19-1.39-14.22-3.27-21.02-5.62-.86-.3-1.71-.59-2.56-.91-.85-.3-1.7-.62-2.55-.94-6.81-2.62-13.4-5.71-19.71-9.21-.8-.44-1.58-.88-2.36-1.34-.79-.45-1.57-.91-2.35-1.39-6.24-3.75-12.18-7.93-17.81-12.49l12.27-15.14Z"/>
      <path class="cls-3" d="m238.78,317.24c5.98-2.29,11.74-4.98,17.25-8.04.69-.38,1.38-.77,2.07-1.17.69-.4,1.37-.8,2.05-1.21,5.47-3.29,10.68-6.95,15.59-10.92l12.26,15.14c-5.61,4.55-11.56,8.73-17.81,12.5-.78.46-1.56.92-2.35,1.37-.78.46-1.57.91-2.37,1.34-6.29,3.49-12.87,6.57-19.72,9.18l-6.98-18.19Z"/>
    </g>
    <g class="cls-8">
      <path class="cls-5" d="m112.21,24.96C65.36,47.05,29.44,88.53,14.8,139.05c-2.24-.21-4.48-.43-6.72-.65C23.07,85.37,60.63,41.83,109.72,18.79c.83,2.05,1.66,4.11,2.49,6.16Z"/>
      <path class="cls-5" d="m149.55,12.11c-5.64,1.27-11.17,2.8-16.59,4.59-.8-2.06-1.61-4.12-2.42-6.19,5.6-1.85,11.32-3.45,17.13-4.77.63,2.12,1.25,4.25,1.87,6.38Z"/>
      <path class="cls-3" d="m147.67,5.73c13.56-3.1,27.68-4.73,42.18-4.73,48.65,0,93.01,18.4,126.49,48.61"/>
      <path class="cls-3" d="m130.54,10.5c-7.14,2.36-14.09,5.13-20.82,8.29l2.49,6.16"/>
      <path class="cls-3" d="m370.99,136.21c5.03,17.01,7.73,35.02,7.73,53.66,0,21.03-3.44,41.26-9.78,60.16"/>
      <path class="cls-3" d="m254.11,367.52c47.47-17.17,86.09-52.82,107.16-98.26"/>
      <path class="cls-3" d="m97.65,354.74c27.27,15.28,58.72,23.99,92.2,23.99,5.07,0,10.09-.2,15.06-.6"/>
      <path class="cls-3" d="m18.74,269.92c9.85,21.02,23.46,39.92,39.95,55.84"/>
      <path class="cls-3" d="m14.8,139.05c-2.24-.21-4.48-.43-6.72-.65-4.43,15.68-6.88,32.19-7.08,49.24"/>
      <path class="cls-5" d="m149.55,12.11l-16.59,4.59c5.42-1.78,10.95-3.32,16.59-4.59Z"/>
      <path class="cls-5" d="m137.86,345.83c-1.44,2.75-2.89,5.51-4.34,8.26-28.97-9.92-54.48-27.29-74.26-49.83,2.81-1.47,5.62-2.93,8.43-4.4,18.8,20.87,42.9,36.9,70.16,45.96Z"/>
      <path class="cls-5" d="m349.88,256.92c-5.13,12.24-11.62,23.77-19.29,34.39-2.92-1.22-5.83-2.44-8.75-3.66,7.92-10.68,14.57-22.35,19.74-34.8,2.76,1.36,5.53,2.71,8.3,4.07Z"/>
      <path class="cls-5" d="m346.92,116.21c-2.82,1.22-5.64,2.45-8.45,3.67-18.78-39.82-53.08-70.88-95.1-85.37,1.34-2.79,2.67-5.58,4-8.37,44.01,15.48,79.9,48.21,99.55,90.07Z"/>
    </g>
  </g>
</svg>