<?xml version="1.0" encoding="UTF-8"?>
<svg id="Layer_2" data-name="Layer 2" xmlns="http://www.w3.org/2000/svg" viewBox="0 0 60.62 88.68">
  <defs>
    <style>
      .cls-1 {
        fill: #231f20;
      }

      .cls-1, .cls-2 {
        stroke: #231f20;
        stroke-miterlimit: 10;
      }

      .cls-2 {
        fill: #da2027;
      }
    </style>
  </defs>
  <g id="Layer_1-2" data-name="Layer 1">
    <g>
      <g>
        <circle class="cls-1" cx="30.65" cy="27.54" r="6.65"/>
        <path class="cls-1" d="M30.31,53.93H13.81c0-9.05,7.44-16.49,16.49-16.49s16.49,7.44,16.49,16.49c0,0,0,0,0,.01H30.31Z"/>
      </g>
      <path class="cls-2" d="M51.14,9.76C45.77,4.03,38.42,.5,30.31,.5S14.85,4.03,9.48,9.76C3.94,15.65,.5,23.89,.5,32.99c0,5.99,1.49,11.59,4.09,16.41l3.59,5.35,22.13,33.03,22.13-33.03,3.59-5.35c2.6-4.82,4.09-10.42,4.09-16.41,0-9.1-3.44-17.34-8.98-23.23ZM30.31,53.34c-11.8,0-21.36-9.56-21.36-21.36S18.51,10.62,30.31,10.62s21.35,9.57,21.35,21.36-9.56,21.36-21.35,21.36Z"/>
    </g>
  </g>
</svg>