<?xml version="1.0" encoding="UTF-8"?>
<svg id="Layer_2" data-name="Layer 2" xmlns="http://www.w3.org/2000/svg" viewBox="0 0 60.62 88.68">
  <defs>
    <style>
      .cls-1 {
        fill: none;
      }

      .cls-1, .cls-2, .cls-3 {
        stroke: #231f20;
        stroke-miterlimit: 10;
      }

      .cls-2 {
        fill: #231f20;
      }

      .cls-3 {
        fill: #44b64b;
      }
    </style>
  </defs>
  <g id="Layer_1-2" data-name="Layer 1">
    <g>
      <g>
        <line class="cls-1" x1="20.1" y1="37.14" x2="22.2" y2="37.14"/>
        <line class="cls-1" x1="24.13" y1="37.14" x2="26.23" y2="37.14"/>
        <line class="cls-1" x1="28.15" y1="39.59" x2="30.26" y2="39.59"/>
        <line class="cls-1" x1="28.15" y1="41.89" x2="30.26" y2="41.89"/>
        <line class="cls-1" x1="32.18" y1="41.89" x2="34.28" y2="41.89"/>
        <line class="cls-1" x1="36.21" y1="44.28" x2="38.31" y2="44.28"/>
        <line class="cls-1" x1="24.13" y1="46.73" x2="26.23" y2="46.73"/>
        <path class="cls-2" d="M39.3,24.57h-2.08c.18,0,.33-.14,.33-.33v-3.44c0-.17-.14-.32-.33-.32h-1.39c-.17,0-.33,.14-.33,.32v3.44c0,.18,.15,.33,.33,.33h-13.24c.18,0,.33-.14,.33-.33v-3.44c0-.17-.14-.32-.33-.32h-1.39c-.18,0-.33,.14-.33,.32v3.44c0,.18,.14,.33,.33,.33h-1.64c-2.25,0-4.07,1.82-4.07,4.07v19.75c0,2.25,1.82,4.07,4.07,4.07h19.75c2.25,0,4.07-1.82,4.07-4.07V28.64c0-2.25-1.82-4.07-4.07-4.07Zm1.43,23.45c0,1.19-.96,2.15-2.14,2.15H20.26c-1.18,0-2.14-.96-2.14-2.15v-11.94c0-1.18,.96-2.14,2.14-2.14h18.32c1.18,0,2.14,.96,2.14,2.14v11.94Zm0-18.26c0,.59-.48,1.07-1.08,1.07H19.19c-.59,0-1.07-.48-1.07-1.07v-1.93c0-.6,.48-1.08,1.07-1.08h20.45c.6,0,1.08,.48,1.08,1.08v1.93Z"/>
      </g>
      <path class="cls-3" d="M51.14,9.76C45.77,4.03,38.42,.5,30.31,.5S14.85,4.03,9.48,9.76C3.94,15.65,.5,23.89,.5,32.99c0,5.99,1.49,11.59,4.09,16.41l3.59,5.35,22.13,33.03,22.13-33.03,3.59-5.35c2.6-4.82,4.09-10.42,4.09-16.41,0-9.1-3.44-17.34-8.98-23.23ZM30.31,53.34c-11.8,0-21.36-9.56-21.36-21.36S18.51,10.62,30.31,10.62s21.35,9.57,21.35,21.36-9.56,21.36-21.35,21.36Z"/>
    </g>
  </g>
</svg>